<svg width="15" height="39" viewBox="0 0 15 39" fill="none" xmlns="http://www.w3.org/2000/svg">
<path d="M0.76383 35.3013C0.65454 35.8426 1.0048 36.3701 1.54617 36.4794L10.3682 38.2604C10.9096 38.3697 11.437 38.0194 11.5463 37.478C11.6556 36.9367 11.3053 36.4092 10.764 36.2999L2.92217 34.7168L4.50527 26.875C4.61456 26.3337 4.26429 25.8062 3.72293 25.6969C3.18157 25.5876 2.65411 25.9379 2.54482 26.4792L0.76383 35.3013ZM7.39732 1.70467C10.6274 6.93218 13.0478 12.5153 12.7163 18.0722C12.3893 23.5517 9.36708 29.2366 1.19086 34.6661L2.29725 36.3322C10.8482 30.6538 14.3389 24.4562 14.7127 18.1914C15.0819 12.004 12.3906 5.98096 9.09872 0.65337L7.39732 1.70467Z" fill="#F79781"/>
</svg>
