<svg width="61" height="108" viewBox="0 0 61 108" fill="none" xmlns="http://www.w3.org/2000/svg">
<path d="M41.2736 105.926C41.4733 106.73 42.2869 107.219 43.0909 107.02L56.1928 103.765C56.9968 103.566 57.4867 102.752 57.287 101.948C57.0872 101.144 56.2736 100.654 55.4696 100.854L43.8235 103.747L40.9307 92.1005C40.731 91.2965 39.9173 90.8067 39.1133 91.0064C38.3093 91.2061 37.8195 92.0197 38.0192 92.8237L41.2736 105.926ZM0.751473 3.49702C22.1714 10.6252 41.6489 20.4593 51.147 36.1015C60.5351 51.5625 60.4476 73.2266 41.4443 104.79L44.0144 106.338C63.3039 74.2985 63.9204 51.3576 53.7112 34.5444C43.612 17.9122 23.191 7.80273 1.69874 0.650502L0.751473 3.49702Z" fill="#F79781"/>
</svg>
