<svg aria-hidden="true" style="width:0;height:0;position:absolute;overflow:hidden" xmlns="http://www.w3.org/2000/svg"><defs><symbol id="icon-clock" viewBox="0 0 32 32"><path d="M16 32c8.822 0 16-7.178 16-16S24.822 0 16 0 0 7.178 0 16s7.178 16 16 16zm0-31c8.271 0 15 6.729 15 15s-6.729 15-15 15S1 24.271 1 16 7.729 1 16 1zm4.061 20.768a.498.498 0 0 0 .708 0 .5.5 0 0 0 0-.707L16 16.293V9.319a.5.5 0 0 0-1 0V16.5c0 .133.053.26.146.354l4.915 4.914zM3 16a1 1 0 1 0 2 0 1 1 0 0 0-2 0zm24 0a1 1 0 1 0 2 0 1 1 0 0 0-2 0zM15 4a1 1 0 1 0 2 0 1 1 0 0 0-2 0zm0 24a1 1 0 1 0 2 0 1 1 0 0 0-2 0zM7 8a1 1 0 1 0 2 0 1 1 0 0 0-2 0zm16 16a1 1 0 1 0 2 0 1 1 0 0 0-2 0zm1-16a1 1 0 1 0 2 0 1 1 0 0 0-2 0zM7 24a1 1 0 1 0 2 0 1 1 0 0 0-2 0z"/></symbol><symbol id="icon-user" viewBox="0 0 20 28"><path d="M20 21.859C20 24.14 18.5 26 16.672 26H3.328C1.5 26 0 24.141 0 21.859 0 17.75 1.016 13 5.109 13a6.979 6.979 0 0 0 9.782 0C18.985 13 20 17.75 20 21.859zM16 8c0 3.313-2.688 6-6 6s-6-2.688-6-6 2.688-6 6-6 6 2.688 6 6z"/></symbol><symbol id="icon-education" viewBox="0 0 32 32"><path d="M14.123.07c-2.121.239-4.659 1.125-6.514 2.27-1.501.934-3.22 2.461-4.243 3.784C1.62 8.381.521 10.979.092 13.863c-.136.927-.116 3.491.034 4.466.703 4.534 3.213 8.489 7.006 11.018a16.342 16.342 0 0 0 6.589 2.529c1.119.164 3.438.164 4.557 0a16.464 16.464 0 0 0 7.749-3.368c3.131-2.509 5.212-6.116 5.846-10.125.171-1.084.171-3.661 0-4.745-.566-3.573-2.244-6.784-4.83-9.246-2.524-2.4-5.873-3.961-9.284-4.33-.778-.089-2.858-.082-3.636.007zm3.67 9.607a515.6 515.6 0 0 0 3.288 1.384c.825.348 1.657.702 1.842.791.191.089 1.126.484 2.081.886 3.076 1.295 3.424 1.452 3.329 1.507-.048.034-.812.477-1.692.995l-1.603.948-.02 1.718c-.014 1.452 0 1.718.082 1.718.143 0 .45.395.45.58 0 .191-.143.239-.764.239h-.464v-.232c0-.164.061-.293.205-.45l.205-.218v-3.177l-1.221.689-1.221.695-.027 1.023-.02 1.023-.287.58c-.341.695-.327.675-.975 1.2-.948.77-1.61 1.036-3.308 1.33-1.378.232-1.944.245-3.097.055-.757-.123-2.108-.525-2.551-.75-.348-.184-1.351-.975-1.576-1.248-.477-.586-.546-.832-.587-2.08l-.034-1.125-3.09-1.752c-1.699-.968-3.09-1.78-3.09-1.807s.593-.3 1.317-.607c2.578-1.098 5.853-2.489 8.172-3.47a266.158 266.158 0 0 0 2.558-1.091c.116-.055.232-.102.259-.102.034-.007.86.334 1.842.75zm7.94 11.727c.15.402.157.43.041.559-.205.218-.471.32-.873.32-.423 0-.723-.13-.853-.368-.055-.116-.048-.204.041-.416.061-.15.136-.334.164-.409.048-.123.109-.136.682-.13l.634.014.164.43z"/><path d="M4.17 14.163c.034.034 2.394 1.391 5.246 3.007 2.851 1.623 5.498 3.13 5.887 3.348.505.286.703.368.682.286-.027-.13-11.542-6.695-11.746-6.702-.089 0-.109.02-.068.061z"/></symbol><symbol id="icon-confidental" viewBox="0 0 32 32"><path d="M20.722 24.964a.186.186 0 0 1-.073.306c-7.7 2.466-16.032-1.503-18.594-8.942a1.02 1.02 0 0 1 0-.655A14.007 14.007 0 0 1 5.643 10.1a.156.156 0 0 1 .217.003l4.302 4.302c.03.03.041.072.031.113-1.116 4.345 2.948 8.395 7.276 7.294a.13.13 0 0 1 .131.032l3.122 3.12zm3.958-1.698c2.406-1.692 4.281-4.079 5.266-6.941.072-.21.072-.44 0-.65C27.954 9.888 22.35 6 16 6c-2.479 0-4.841.597-6.921 1.665L3.707 2.293a.999.999 0 1 0-1.414 1.414l26 26a.999.999 0 1 0 1.414-1.414l-5.027-5.027zM16 10c3.309 0 6 2.691 6 6 0 1.294-.416 2.49-1.115 3.471l-8.356-8.356A5.961 5.961 0 0 1 16 10z"/></symbol><symbol id="icon-glyph" viewBox="0 0 32 32"><path d="M30.5 0h-29C.675 0 0 .791 0 1.759v22.083c0 .967.675 1.759 1.5 1.759h12v4.055H8.938v2.345h14.125v-2.345h-4.562v-4.055h12c.825 0 1.5-.791 1.5-1.759V1.759c0-.967-.675-1.759-1.5-1.759zM16 4.887c1.676 0 3.034 1.586 3.034 3.544S17.676 11.975 16 11.975c-1.676 0-3.034-1.586-3.034-3.544S14.324 4.887 16 4.887zm2.111 7.902L16 18.249l-2.111-5.46h4.222zm-8.26 7.424v-4.071c0-3.305 3.075-3.352 3.075-3.352l2.931 7.423H9.851zm12.298 0h-6.006l2.931-7.423s3.075.048 3.075 3.352v4.071z"/></symbol><symbol id="icon-qualification" viewBox="0 0 32 32"><path d="M14.123.07c-2.121.239-4.659 1.125-6.514 2.27-1.501.934-3.22 2.461-4.243 3.784C1.62 8.381.521 10.979.092 13.863c-.136.927-.116 3.491.034 4.466.703 4.534 3.213 8.489 7.006 11.018a16.342 16.342 0 0 0 6.589 2.529c1.119.164 3.438.164 4.557 0a16.464 16.464 0 0 0 7.749-3.368c3.131-2.509 5.212-6.116 5.846-10.125.171-1.084.171-3.661 0-4.745-.566-3.573-2.244-6.784-4.83-9.246-2.524-2.4-5.873-3.961-9.284-4.33-.778-.089-2.858-.082-3.636.007zm6.46 7.602 3.609 3.6-.02 5.216c-.02 4.848-.027 5.236-.143 5.489-.164.368-.559.77-.934.948-.3.136-.409.143-3.493.164-3.008.02-3.186.014-3.22-.102A28.902 28.902 0 0 1 16 21.521c0-.027 1.467-.061 3.261-.068l3.254-.02.02-5.093.014-5.093-2.128-.02c-2.408-.02-2.381-.02-2.967-.593-.464-.443-.498-.655-.498-2.986V5.65h-2.524c-2.422 0-2.524.007-2.592.13-.041.089-.068 1.282-.068 3.409v3.28h-.423c-.239 0-.593.048-.784.095l-.362.095v-3.62c0-4.098-.02-3.927.546-4.473.484-.47.518-.47 3.547-.477l2.688-.007 3.602 3.593zm-8.254 5.482c1.228.259 2.278 1.289 2.613 2.564.464 1.773-.668 3.675-2.456 4.146-.498.123-1.316.13-1.774.007a3.46 3.46 0 0 1-2.606-3.143c-.089-1.268.505-2.38 1.671-3.157.641-.43 1.685-.593 2.551-.416zm2.756 7.091c.205.764.641 2.42.962 3.675s.614 2.4.648 2.543c.123.436.191.464-1.426-.484-.457-.273-.873-.511-.928-.525-.061-.027-.157.082-.287.321-.505.955-1.228 2.093-1.269 2.018-.027-.048-.232-.798-.457-1.657-.225-.866-.641-2.461-.928-3.552s-.518-2.018-.518-2.052c0-.041.232-.055.566-.034.668.034 1.173-.055 1.726-.321.443-.211 1.098-.77 1.33-1.139.082-.13.157-.225.177-.211.014.02.198.654.402 1.418zm-5.464-.416c.027.041.205.164.396.273l.348.198.559 2.114.566 2.114-.266 1.002c-.143.545-.28 1.009-.293 1.03-.02.014-.116-.123-.218-.3-.109-.177-.355-.607-.559-.955l-.362-.62-.532.286a55.05 55.05 0 0 0-.996.58c-.43.266-.464.28-.423.13.184-.702.928-3.477 1.214-4.575.334-1.255.437-1.486.566-1.275z"/></symbol><symbol id="icon-sertificate" viewBox="0 0 30 32"><path d="m16.188 12.094.909-.005c.577-.604 1.273-1.322 2.183-1.269.913-.049 1.606.656 2.183 1.269.386.015 1.131-.043 1.492.092V6.396H6.913v9.236h6.645l.452-.457.01-.909a2.198 2.198 0 0 1 2.168-2.173zm-6.116-2.027c-.956-.014-.961-1.443 0-1.458h9.722c.955.017.96 1.44 0 1.458h-9.722z"/><path d="M25.871 2.751H3.996a.731.731 0 0 0-.729.724v15.074a.727.727 0 0 0 .729.729h9.756c-.646-.571-1.124-1.32-.987-2.187H6.183a.727.727 0 0 1-.729-.729V5.668a.738.738 0 0 1 .213-.516.73.73 0 0 1 .516-.213h17.5a.727.727 0 0 1 .729.729v7.88c.185.412.123 1.18.136 1.628l.642.646c1.026 1.082.714 2.562-.384 3.456h1.065a.734.734 0 0 0 .729-.729V3.475a.73.73 0 0 0-.73-.724zm-2.397 19.862-2.012.015-.929.914.723 1.991a.243.243 0 0 0 .449.02l.675-1.447 1.441.674a.24.24 0 0 0 .339-.162.243.243 0 0 0-.008-.141l-.679-1.864zm-8.385 0-.679 1.864c-.016.045-.019.094-.008.141s.036.089.072.121.08.054.127.061.096 0 .14-.02l1.441-.674.676 1.447a.244.244 0 0 0 .449-.02l.723-1.987-.933-.919-2.008-.015z"/><path d="m23.096 15.778-.011-1.502a.726.726 0 0 0-.722-.722l-1.502-.011-1.069-1.054a.729.729 0 0 0-1.022 0l-1.069 1.054-1.502.011a.726.726 0 0 0-.722.722l-.011 1.502-1.054 1.069a.729.729 0 0 0 0 1.022l1.054 1.069.011 1.502a.726.726 0 0 0 .722.722l1.502.011 1.069 1.054a.729.729 0 0 0 1.022 0l1.069-1.054 1.502-.011a.726.726 0 0 0 .722-.722l.011-1.502 1.054-1.069a.729.729 0 0 0 0-1.022l-1.054-1.069zm-3.815 3.524c-2.57-.079-2.57-3.81 0-3.889 2.57.079 2.569 3.81 0 3.889z"/></symbol><symbol id="icon-support" viewBox="0 0 32 32"><path d="M30.654 10.451c-.169-.337-.619-.493-1.01-.345-.388.147-.566.54-.397.878 2.388 4.768 1.198 10.225-3.032 13.903-2.729 2.373-6.358 3.68-10.217 3.68-3.369 0-6.563-.996-9.135-2.828l5.412-1.008c.414-.077.679-.432.59-.792s-.5-.59-.91-.513l-6.877 1.281c-.414.077-.679.432-.589.792l1.472 5.979c.176.602.831.524.91.512.385-.057.678-.432.589-.792l-.994-4.037c2.74 1.777 6.051 2.739 9.532 2.739 4.269 0 8.283-1.446 11.302-4.07 4.68-4.068 5.997-10.104 3.354-15.379zM5.784 7.119c5.286-4.596 13.681-4.879 19.352-.851l-5.412 1.008c-.414.077-.678.432-.589.792.077.313.395.527.749.527.042.052 7.038-1.295 7.038-1.295.592-.116.632-.619.589-.792L26.038.529c-.088-.36-.498-.592-.91-.512-.414.077-.679.432-.589.792l.995 4.04C19.28.804 10.371 1.246 4.699 6.177.02 10.245-1.297 16.281 1.345 21.556c.126.251.473.522 1.01.345.37-.122.566-.54.397-.878C.364 16.255 1.554 10.797 5.785 7.119z"/><path d="m8.793 16.186-2.434 2.126v.998h5.487v-1.128H8.208l1.882-1.667c.575-.512.969-.931 1.183-1.257s.321-.669.321-1.028c0-.639-.254-1.143-.758-1.512-.505-.369-1.093-.554-1.763-.554s-1.216.116-1.642.349c-.424.233-.813.579-1.165 1.038l1.091.549c.436-.585.982-.878 1.642-.878.374 0 .684.098.93.295.244.196.367.434.367.714s-.115.556-.344.828c-.229.273-.616.649-1.159 1.128zm8.815 3.124v-1.756h.964v-1.068h-.964v-1.277h-1.286v1.277h-1.917l2.904-4.152h-1.48l-2.95 4.181v1.038h3.444v1.756h1.286zm7.967.001v-3.253c0-.692-.211-1.221-.637-1.587-.424-.366-.981-.549-1.671-.549-.429 0-.829.093-1.2.279s-.647.443-.831.768v-3.054H19.95v7.396h1.286v-2.874c0-.493.164-.867.493-1.123s.715-.384 1.159-.384c.934 0 1.4.489 1.4 1.467v2.914h1.286z"/></symbol></defs></svg>