<svg width="80" height="93" fill="none" xmlns="http://www.w3.org/2000/svg"><path fill-rule="evenodd" clip-rule="evenodd" d="M43.326.134c0 .102.617.912 1.372 1.8 5.136 6.05 6.618 10.28 6.074 17.332-.721 9.343.407 14.936 3.621 17.943 2.73 2.552 3.94 4.368 4.14 6.211l.16 1.457-.858-2.035c-3.157-7.486-14.346-12.435-33.933-15.012-9.037-1.19-25.329-2.351-23.469-1.674 3.428 1.247 12.259 6.373 21.134 12.266 3.271 2.173 6.09 4.007 6.261 4.077.172.069 1.2.742 2.281 1.495 8.498 5.915 14.87 8.45 16.59 6.601 2.124-2.283-.444-6.036-7.256-10.6-3.644-2.44-3.621-2.672.075-.763 18.246 9.424 7.613 29.215-22.557 41.985-2.961 1.253-2.407 1.307 1.372.133 7.372-2.29 14.098-5.463 19.977-9.425 4.6-3.1 4.421-3.265 3.183 2.938-1.323 6.625-2.907 19.143-2.286 18.073.15-.259.514-1.738.81-3.288 1.293-6.785 4.234-17.356 5.574-20.037 1.144-2.29 1.304-2.377 3.97-2.165 6.222.495 13.187-3.017 14.906-7.517.725-1.9.408-2.165-.456-.381-2.382 4.92-8.823 7.778-14.614 6.482-1.917-.429-1.858-.538-1.173-1.872 5.674-11.043 17.508-17.437 22.884-12.365 1.948 1.838 4.122 2.378 2.796.64-.45-.59-.911-1.686-1.026-2.436-.473-3.082-2.096-4.519-6.106-5.4l-.817-.18.146-3.11c.559-11.846-3.27-23.368-10.415-31.339-3.693-4.12-12.36-11.016-12.36-9.834Zm-3.444 13.117c-6.758 1.348-12.5 4.467-17.533 9.523l-2.66 2.673 1.064.111c.948.099 1.29-.11 3.13-1.906 6.172-6.024 14.229-9.3 22.869-9.3 2.491 0 2.706-.1 2.333-1.07-.242-.631-6.099-.65-9.203-.031Zm23.463 5.134c.342.67 1.225 1.658 1.963 2.197 9.213 6.727 14.94 20.45 12.798 30.666C74.662 67.67 62.25 78.534 46.928 78.534c-2.535 0-2.593.017-2.744.807-.464 2.427 10.945.68 17.614-2.697 22.659-11.47 24.587-44.532 3.396-58.229-2.397-1.55-2.626-1.553-1.849-.03ZM14.11 36.19c-1.455 2.51-1.982 13.806-.828 17.767 2.26 7.76 4.76 12.117 9.668 16.849 3.386 3.263 3.73 3.467 4.67 2.758l.71-.536-1.426-1.024c-10.05-7.218-15.494-23.672-11.396-34.45.37-.972-.905-2.215-1.398-1.364Zm19.389 40.667c-1.124.61-.907.775 2.407 1.835 3.03.97 3.037.97 3.037-.08-.001-.778-.174-.911-1.814-1.393a81.022 81.022 0 0 1-2.27-.693c-.25-.088-.863.061-1.36.331Z" fill="#264158"/><path d="M65.739 50.541c-3.914.313-5.36 4.624-1.908 5.763 1.578.52 3.972-.256 5.892-1.912l1.506-1.3-.839-.876c-1.413-1.415-3.69-1.706-4.651-1.675Z" fill="#264158"/></svg>