<svg aria-hidden="true" style="width:0;height:0;position:absolute;overflow:hidden" xmlns="http://www.w3.org/2000/svg"><defs><symbol id="icon-email" viewBox="0 0 37 32"><path fill="none" stroke="#fff" style="stroke:var(--color1,#fff)" stroke-linejoin="round" stroke-linecap="round" stroke-width="4.923" d="M29.47 4.678H7.453c-1.737 0-3.145 1.448-3.145 3.235v16.176c0 1.787 1.408 3.235 3.145 3.235H29.47c1.737 0 3.145-1.448 3.145-3.235V7.913c0-1.787-1.408-3.235-3.145-3.235z"/><path fill="none" stroke="#fff" style="stroke:var(--color1,#fff)" stroke-linejoin="round" stroke-linecap="round" stroke-width="4.923" d="m4.308 8.923 14.154 8.492 14.154-8.492"/></symbol><symbol id="icon-instagram" viewBox="0 0 32 32"><path d="M16 2.892h6.554c1.542 0 2.313.386 2.892.578.771.386 1.349.578 1.928 1.157s.964 1.157 1.157 1.928c.193.578.386 1.349.578 2.892v13.108c0 1.542-.386 2.313-.578 2.892-.385.771-.578 1.349-1.157 1.928s-1.157.964-1.928 1.157c-.578.193-1.349.386-2.892.578H9.446c-1.542 0-2.313-.386-2.892-.578-.771-.385-1.349-.578-1.928-1.157s-.964-1.157-1.157-1.928c-.193-.578-.386-1.349-.578-2.892V9.447c0-1.542.386-2.313.578-2.892.386-.771.578-1.349 1.157-1.928s1.157-.964 1.928-1.157c.578-.193 1.349-.386 2.892-.578H16zM16 0H9.446C7.711 0 6.554.386 5.591.771c-.964.386-1.928.964-2.892 1.928S1.35 4.434.771 5.591C.385 6.555.193 7.711 0 9.446v13.108c0 1.735.386 2.892.771 3.855.386.964.964 1.928 1.928 2.892s1.735 1.349 2.892 1.928c.964.385 2.12.578 3.855.771h13.108c1.735 0 2.892-.386 3.855-.771s1.928-.964 2.892-1.928 1.349-1.735 1.928-2.892c.385-.964.578-2.12.771-3.855V9.446c0-1.735-.386-2.892-.771-3.855s-.964-1.928-1.928-2.892S27.566 1.35 26.409.771C25.445.385 24.289.193 22.554 0H16z"/><path d="M16 7.711c-4.627 0-8.289 3.663-8.289 8.289s3.663 8.289 8.289 8.289c4.627 0 8.289-3.663 8.289-8.289S20.626 7.711 16 7.711zm0 13.687c-2.892 0-5.398-2.313-5.398-5.398 0-2.892 2.313-5.398 5.398-5.398 2.892 0 5.398 2.313 5.398 5.398 0 2.892-2.506 5.398-5.398 5.398zM24.482 9.446a1.928 1.928 0 1 0 0-3.856 1.928 1.928 0 0 0 0 3.856z"/></symbol><symbol id="icon-map" viewBox="0 0 25 32"><path fill="#d3dde6" style="fill:var(--color2,#d3dde6)" d="M25.379 12.163c0-6.612-5.661-11.937-12.69-11.937S-.001 5.551-.001 12.163c0 6.612 12.69 18.959 12.69 18.959s12.69-12.347 12.69-18.959zM6.78 11.928c0-3.043 2.675-5.559 5.909-5.559s5.909 2.458 5.909 5.559c0 3.043-2.613 5.559-5.909 5.559-3.235 0-5.909-2.516-5.909-5.559z"/></symbol><symbol id="icon-tel" viewBox="0 0 35 32"><path fill="#fff" style="fill:var(--color1,#fff)" d="M24.469 18.92c-1.963 2.034-1.963 4.068-3.925 4.068s-3.925-2.034-5.888-4.068-3.925-4.068-3.925-6.102 1.963-2.034 3.925-4.068C16.619 6.716 10.731.613 8.768.613S2.88 6.716 2.88 6.716c0 4.068 4.033 12.317 7.851 16.273s11.776 8.137 15.701 8.137c0 0 5.888-4.068 5.888-6.102s-5.888-8.137-7.851-6.102z"/></symbol><symbol id="icon-telegram" viewBox="0 0 36 32"><path d="m35.765 1.134-5.657 29.534s-.792 2.048-2.966 1.066L14.089 21.37l-.061-.03C15.791 19.7 29.463 6.971 30.061 6.394c.925-.894.351-1.426-.723-.751L9.143 18.924l-7.791-2.715S.126 15.757.008 14.775c-.119-.984 1.384-1.516 1.384-1.516L33.155.356s2.611-1.188 2.611.778z"/></symbol><symbol id="icon-viber" viewBox="0 0 29 32"><path d="M22.614.76a43.096 43.096 0 0 0-16.113 0C4.155 1.266 1.198 4.102.688 6.33a31.81 31.81 0 0 0 0 13.165c.612 2.228 3.569 5.064 5.813 5.57.102 0 .204.101.204.202v6.38c0 .304.408.506.612.203l3.059-3.139s2.448-2.532 2.855-2.937c0 0 .102-.101.204-.101 3.059.101 6.221-.203 9.28-.709 2.346-.506 5.303-3.342 5.813-5.57a31.81 31.81 0 0 0 0-13.165c-.612-2.127-3.569-4.962-5.915-5.469zm.102 19.039c-.51 1.013-1.122 1.823-2.142 2.329l-.918.304c-.408-.101-.714-.203-1.02-.304-3.263-1.317-6.323-3.139-8.77-5.773-1.326-1.519-2.448-3.241-3.365-5.064-.408-.911-.816-1.722-1.122-2.633-.306-.81.204-1.62.714-2.228s1.122-1.013 1.836-1.317c.51-.304 1.02-.101 1.428.304.816 1.013 1.632 2.025 2.244 3.139.408.709.306 1.519-.408 2.025-.204.101-.306.203-.51.405-.102.101-.306.203-.408.405-.204.304-.204.608-.102.911.816 2.329 2.346 4.152 4.691 5.165.408.203.714.304 1.224.304.714-.101 1.02-.911 1.53-1.317s1.122-.405 1.734-.101c.51.304 1.02.709 1.632 1.114.51.405 1.02.709 1.53 1.114.306.203.408.709.204 1.215zm-4.283-7.596c-.204 0-.102 0 0 0-.408 0-.51-.203-.612-.506 0-.203 0-.506-.102-.709-.102-.405-.306-.81-.714-1.114l-.612-.304c-.306-.101-.51-.101-.816-.101-.306-.101-.408-.304-.408-.608 0-.203.306-.405.51-.405 1.632.101 2.856 1.013 3.059 2.937v.405c0 .203-.102.405-.306.405zm-1.02-4.456c-.51-.203-1.02-.405-1.632-.506-.204 0-.51-.101-.714-.101-.306 0-.51-.203-.408-.506 0-.304.204-.506.51-.405 1.02.101 1.938.304 2.856.709 1.836.911 2.855 2.431 3.161 4.456v1.317c-.102.405-.816.506-.918 0 0-.101-.102-.304-.102-.405 0-.911-.204-1.823-.612-2.633-.612-.911-1.326-1.519-2.142-1.924zm5.507 6.076c-.306 0-.51-.304-.51-.608 0-.608-.102-1.215-.204-1.823-.408-3.241-3.059-5.874-6.221-6.38-.51-.101-1.02-.101-1.428-.203-.306 0-.714 0-.816-.405-.102-.304.204-.608.51-.608h.204c4.181.101.204 0 0 0 4.283.101 7.852 2.937 8.566 7.19.102.709.204 1.418.204 2.228.204.304 0 .608-.306.608z"/></symbol><symbol id="icon-wallet" viewBox="0 0 35 32"><path d="M33.895 16.43h-2.482v-5.905c0-.027-.003-.053-.004-.08V5.898c0-.309-.271-.56-.605-.56h-6.417L18.839.206c-.114-.105-.267-.164-.428-.164s-.314.059-.428.164L13.8 4.076l-1.967-1.819a.64.64 0 0 0-.856 0L7.642 5.342c-.022-.002-.044-.004-.067-.004H.701c-.334 0-.605.251-.605.56v5.958l.003.054v18.529c0 .838.737 1.52 1.643 1.52h28.03c.906 0 1.643-.682 1.643-1.52v-5.905h2.482c.334 0 .605-.251.605-.56v-6.985c0-.309-.271-.56-.605-.56zm-3.697-9.973v2.602a1.773 1.773 0 0 0-.428-.054h-1.419l-2.755-2.548h4.602zM18.41 1.393l8.229 7.612h-1.837l-7.311-6.762.919-.85zm-1.775 1.641 6.455 5.971h-3.962l-4.474-4.138 1.981-1.832zm-5.231.409 6.013 5.562h-1.65l-5.188-4.799.825-.763zm2.651 5.562H5.392l4.332-4.007 4.332 4.007zm-10.376 0H1.74c-.151 0-.296.021-.435.056V6.457h5.129L3.679 9.005zm26.523 21.434c0 .22-.194.4-.432.4H1.74c-.238 0-.432-.179-.432-.4V10.525c0-.22.194-.4.432-.4h28.03a.42.42 0 0 1 .428.36v1.371c0 .022.002.044.004.065v4.509h-5.501c-2.416 0-4.381 1.818-4.381 4.052s1.965 4.052 4.381 4.052h5.501v5.905zm3.088-7.025h-8.589c-1.748 0-3.17-1.316-3.17-2.933s1.422-2.933 3.17-2.933h8.589v5.865z"/><path d="M24.73 18.563c-1.144 0-2.075.861-2.075 1.919s.931 1.919 2.075 1.919c1.144 0 2.075-.861 2.075-1.919s-.931-1.919-2.075-1.919zm0 2.719c-.477 0-.865-.359-.865-.8s.388-.8.865-.8.865.359.865.8c0 .441-.388.8-.865.8z"/></symbol></defs></svg>