<svg viewBox="0 0 50 51" fill="none" xmlns="http://www.w3.org/2000/svg"><path d="M47.898 16.65c-.265-.527-.968-.77-1.578-.54-.606.23-.885.845-.62 1.372 3.732 7.45 1.872 15.977-4.739 21.724-4.264 3.708-9.934 5.75-15.964 5.75-5.264 0-10.254-1.557-14.274-4.42l8.457-1.574c.647-.12 1.06-.675.921-1.237-.14-.563-.78-.922-1.422-.8l-10.745 2c-.647.12-1.06.675-.92 1.237l2.3 9.343c.275.94 1.298.819 1.422.8.602-.09 1.06-.674.92-1.237l-1.552-6.308c4.282 2.777 9.455 4.28 14.893 4.28 6.67 0 12.942-2.26 17.66-6.36 7.312-6.357 9.369-15.788 5.24-24.03ZM9.038 11.443c8.259-7.18 21.376-7.623 30.237-1.33l-8.456 1.574c-.647.121-1.06.675-.92 1.238.12.488.616.823 1.17.823.065.081 10.997-2.023 10.997-2.023.926-.182.988-.967.921-1.238l-2.302-9.342c-.138-.562-.778-.924-1.422-.8-.647.12-1.06.674-.92 1.237l1.554 6.313C30.126 1.574 16.206 2.265 7.343 9.97.032 16.326-2.026 25.758 2.102 34c.196.392.74.815 1.577.539.578-.19.885-.844.62-1.372-3.731-7.45-1.872-15.977 4.739-21.724Z" fill="#D3DDE6"/><path d="m13.739 25.611-3.803 3.322v1.559h8.573V28.73h-5.685l2.94-2.604c.899-.8 1.514-1.455 1.85-1.964.334-.51.501-1.046.501-1.606 0-.998-.396-1.786-1.183-2.363-.79-.577-1.707-.865-2.754-.865-1.048 0-1.901.182-2.566.545-.663.364-1.271.905-1.82 1.622l1.704.858c.682-.915 1.536-1.373 2.566-1.373.585 0 1.068.154 1.452.46.382.307.573.679.573 1.116 0 .436-.179.868-.537 1.293-.359.427-.962 1.014-1.811 1.762ZM27.512 30.493v-2.744h1.507V26.08h-1.507v-1.996h-2.01v1.996h-2.994l4.537-6.487h-2.313l-4.61 6.533v1.623h5.38v2.744h2.01ZM39.96 30.493V25.41c0-1.082-.33-1.908-.995-2.48-.663-.572-1.533-.858-2.61-.858-.67 0-1.295.146-1.875.437-.58.29-1.012.692-1.3 1.2v-4.771h-2.009v11.555h2.01v-4.49c0-.77.257-1.355.77-1.756.515-.4 1.118-.6 1.812-.6 1.46 0 2.188.764 2.188 2.293v4.553h2.009Z" fill="#D3DDE6"/></svg>