<svg aria-hidden="true" style="width:0;height:0;position:absolute;overflow:hidden" xmlns="http://www.w3.org/2000/svg"><defs><symbol id="icon-phone" viewBox="0 0 35 32"><path fill="#fff" style="fill:var(--color1,#fff)" d="M24.47 18.918c-1.965 2.035-1.965 4.07-3.926 4.07s-3.926-2.035-5.888-4.07c-1.962-2.032-3.926-4.064-3.926-6.102 0-2.032 1.965-2.032 3.926-4.064C16.618 6.71 10.73.608 8.768.608S2.88 6.714 2.88 6.714c0 4.07 4.032 12.32 7.85 16.275s11.776 8.138 15.702 8.138c0 0 5.888-4.07 5.888-6.102 0-2.035-5.888-8.138-7.85-6.106z"/></symbol><symbol id="icon-Logo-mob" viewBox="0 0 94 32"><path fill="#264158" style="fill:var(--color2,#264158)" d="M35.811.046c0 .035.21.31.466.612 1.746 2.057 2.25 3.495 2.065 5.892-.245 3.177.138 5.079 1.231 6.101.928.868 1.339 1.485 1.407 2.111l.054.495-.292-.692c-1.074-2.545-4.878-4.228-11.537-5.104-3.072-.404-8.612-.799-7.98-.569 1.166.424 4.168 2.167 7.186 4.17 1.112.739 2.07 1.363 2.129 1.387s.408.252.776.508c2.889 2.011 5.056 2.873 5.641 2.245.722-.777-.151-2.052-2.467-3.604-1.239-.83-1.231-.909.025-.26 6.203 3.204 2.588 9.933-7.67 14.275-1.006.427-.818.444.467.045 2.506-.779 4.793-1.858 6.792-3.205 1.564-1.054 1.504-1.11 1.082.999-.45 2.253-.988 6.508-.777 6.145.051-.088.175-.591.275-1.117.44-2.307 1.44-5.901 1.896-6.813.389-.779.443-.808 1.35-.736 2.116.169 4.484-1.026 5.068-2.556.246-.646.139-.736-.155-.13-.81 1.673-2.999 2.645-4.968 2.204-.652-.146-.632-.183-.399-.637 1.929-3.754 5.953-5.928 7.781-4.204.662.625 1.402.808.951.217-.153-.2-.31-.572-.349-.828-.161-1.048-.713-1.536-2.076-1.836l-.278-.061.05-1.058c.19-4.027-1.112-7.945-3.541-10.655-1.256-1.401-4.202-3.744-4.202-3.343zm-1.172 4.459c-2.297.458-4.25 1.519-5.961 3.238l-.905.909.362.038c.322.034.438-.037 1.064-.648a11.027 11.027 0 0 1 7.775-3.162c.847 0 .919-.034.793-.364-.082-.214-2.073-.221-3.129-.01zm7.978 1.746c.116.227.416.564.667.747 3.132 2.287 5.079 6.953 4.351 10.426-1.171 5.584-5.391 9.277-10.6 9.277-.862 0-.882.006-.933.274-.157.825 3.721.231 5.989-.917 7.704-3.9 8.36-15.141 1.155-19.797-.815-.527-.892-.528-.628-.01zm-16.74 6.053c-.495.853-.674 4.694-.281 6.041.768 2.638 1.619 4.119 3.287 5.728 1.151 1.11 1.268 1.179 1.588.938l.241-.182-.485-.348c-3.417-2.454-5.267-8.049-3.874-11.713.125-.33-.308-.753-.476-.464zm6.592 13.827c-.381.207-.308.264.819.624 1.031.33 1.033.329 1.032-.027 0-.264-.059-.31-.616-.473-.453-.126-.71-.207-.966-.291l.194.055c-.085-.03-.294.02-.462.112z"/><path fill="#264158" style="fill:var(--color2,#264158)" d="M43.431 17.183c-1.331.107-1.822 1.573-.649 1.96.536.177 1.351-.087 2.003-.65l.512-.442-.285-.298c-.48-.481-1.255-.58-1.582-.569zm-39.87 3.354c-.689 0-1.302-.151-1.838-.455a3.293 3.293 0 0 1-1.263-1.29C.154 18.232 0 17.57 0 16.806c0-.768.157-1.428.472-1.982.31-.545.752-.982 1.285-1.276l.017-.009c.553-.303 1.18-.455 1.882-.455.553 0 1.018.078 1.397.232.383.155.692.355.925.598s.402.506.504.786c.097.235.155.508.159.794v.062h-.478v-.059c0-.231-.047-.464-.14-.701a1.898 1.898 0 0 0-.434-.667c-.196-.208-.453-.374-.772-.499s-.706-.188-1.161-.188c-.608 0-1.151.136-1.627.405-.472.27-.847.657-1.123 1.161-.272.504-.408 1.104-.408 1.799 0 .524.074.995.223 1.414.153.415.366.771.638 1.067.267.284.59.512.952.666l.018.007c.374.155.787.232 1.238.232.561 0 1.023-.068 1.385-.203.362-.138.638-.303.829-.494.196-.194.324-.377.383-.549v-1.468H3.567v-.331h3.056l-.2 3.301-.228-.919a1.002 1.002 0 0 1-.236.292 2.418 2.418 0 0 1-.51.336 3.609 3.609 0 0 1-.797.272 4.821 4.821 0 0 1-1.092.109zm8.419 0a3.996 3.996 0 0 1-1.442-.252 3.29 3.29 0 0 1-1.142-.742 3.439 3.439 0 0 1-.739-1.157l-.008-.024c-.174-.461-.262-.983-.262-1.566s.089-1.104.268-1.561a3.253 3.253 0 0 1 1.867-1.89l.022-.008c.438-.168.917-.252 1.435-.252s.998.084 1.436.252a3.188 3.188 0 0 1 1.889 1.897c.178.458.268.978.268 1.561s-.089 1.105-.268 1.566a3.34 3.34 0 0 1-.747 1.181h.001a3.23 3.23 0 0 1-1.114.733l-.022.008a3.998 3.998 0 0 1-1.443.252zm0-.345c.604 0 1.138-.136 1.602-.406a2.785 2.785 0 0 0 1.091-1.171c.264-.51.396-1.117.396-1.818 0-.705-.134-1.308-.402-1.808a2.762 2.762 0 0 0-1.091-1.152c-.464-.267-.996-.4-1.595-.4-.596 0-1.128.133-1.595.4-.464.264-.83.647-1.098 1.152-.264.5-.396 1.103-.396 1.808s.132 1.311.396 1.818c.268.507.634.898 1.097 1.171.468.27 1 .405 1.595.405zm5.34.256V13.16h2.903c.783 0 1.387.148 1.812.445.425.293.638.764.638 1.413 0 .395-.098.731-.294 1.008a2.119 2.119 0 0 1-.673.637l-.01.005c-.264.148-.5.234-.708.257.208.013.421.061.638.143.221.079.406.203.555.371.149.165.224.387.224.667v1.843c0 .128.015.239.045.331a.535.535 0 0 0 .076.168h-.504a.906.906 0 0 1-.068-.161l-.002-.007a1.18 1.18 0 0 1-.039-.306v-.027.001-1.788c0-.369-.155-.637-.466-.806s-.725-.252-1.244-.252h-2.565l.16-.153v3.498h-.478zm.478-3.518-.16-.163h2.565c.353 0 .679-.071.976-.213.292-.137.533-.341.711-.592l.004-.006c.183-.257.274-.563.274-.919 0-.547-.176-.939-.529-1.175-.349-.241-.859-.361-1.531-.361h-2.476l.166-.168v3.597zm35.852 3.607c-.63 0-1.158-.077-1.584-.232s-.748-.389-.965-.702c-.217-.316-.326-.71-.326-1.181v-.371h.498v.366c0 .613.203 1.063.607 1.349.404.283.986.425 1.744.425.796 0 1.392-.125 1.788-.376.4-.253.6-.621.6-1.102 0-.336-.1-.611-.3-.825-.196-.217-.472-.4-.83-.549a8.521 8.521 0 0 0-1.194-.396l-.064-.014a9.646 9.646 0 0 1-1.456-.485c-.418-.184-.741-.406-.971-.667-.23-.264-.345-.591-.345-.983 0-.372.109-.685.326-.939.221-.254.534-.445.939-.573.409-.132.894-.198 1.456-.198.6 0 1.113.073 1.539.217.426.142.752.361.977.657.23.293.345.667.345 1.122v.42h-.498v-.41c0-.587-.207-1.01-.62-1.27-.409-.261-.986-.391-1.731-.391-.711 0-1.262.114-1.654.341s-.588.569-.588 1.023c0 .339.108.621.326.845.221.22.524.406.907.558.383.148.819.286 1.309.415.554.142 1.024.3 1.412.474.392.175.69.389.894.642.209.254.313.577.313.969 0 .386-.111.715-.332.988-.217.273-.539.484-.965.632-.422.145-.941.217-1.558.217zm10.335-7.377v7.288h-.492v-3.642l.224.183h-5.193l.224-.183v3.642h-.492V13.16h.492v3.682l-.224-.193h5.193l-.224.193V13.16h.492zm2.361.341.224-.208v3.474l-.153-.144h3.966v.336h-3.966l.153-.143v3.498l-.224-.207h4.49v.34h-4.758V13.16h4.758v.341h-4.49zm7.059 6.947h-.479V13.16h.798l4.81 7.061-.051.025V13.16h.479v7.288h-.817l-4.79-7.056.051-.015v7.07zm9.225-3.795v-.302l3.768 4.096h-.568l-3.513-3.785.262.025-1.105 1.087.077-.267v2.94h-.492v-7.288h.492v4.155l-.102-.064 4.107-4.091h.556l-3.481 3.494zm7.743 3.884a4.007 4.007 0 0 1-1.444-.252 3.294 3.294 0 0 1-1.143-.742 3.449 3.449 0 0 1-.739-1.157l-.008-.024c-.175-.461-.262-.983-.262-1.566s.089-1.104.268-1.561a3.253 3.253 0 0 1 1.868-1.89l.022-.008c.438-.168.917-.252 1.437-.252s.999.084 1.437.252c.446.171.826.419 1.144.732.324.316.572.705.747 1.166.179.458.268.978.268 1.561s-.089 1.105-.268 1.566c-.172.46-.426.854-.748 1.181h.001a3.234 3.234 0 0 1-1.115.733l-.022.008c-.439.168-.92.252-1.444.252zm0-.345c.604 0 1.139-.136 1.603-.406a2.794 2.794 0 0 0 1.092-1.171c.264-.51.396-1.117.396-1.818 0-.705-.134-1.308-.403-1.808a2.764 2.764 0 0 0-1.092-1.152c-.464-.267-.996-.4-1.596-.4-.596 0-1.129.133-1.597.4-.464.264-.83.647-1.099 1.152-.264.5-.396 1.103-.396 1.808s.132 1.311.396 1.818a2.9 2.9 0 0 0 1.099 1.171c.468.27 1.001.405 1.597.405z"/></symbol><symbol id="icon-close-menu" viewBox="-4 -5 40 40"><path d="m31.125 27-11-11L31.083 5a.401.401 0 0 0 0-.584L27.542.875a.401.401 0 0 0-.584 0L16 11.875 5.042.917a.401.401 0 0 0-.584 0L.917 4.458a.401.401 0 0 0 0 .584L11.834 16 .875 26.958a.401.401 0 0 0 0 .584l3.541 3.541c.168.168.459.168.584 0l11-10.958 10.958 10.958a.502.502 0 0 0 .625.043l3.543-3.541a.401.401 0 0 0 0-.584z"/></symbol><symbol id="icon-wallet" viewBox="0 0 35 32"><path fill="#536779" style="fill:var(--color3,#536779)" d="M33.894 16.43h-2.482v-5.905c0-.027-.002-.054-.003-.08V5.899c0-.31-.272-.56-.605-.56h-6.417L18.839.206a.629.629 0 0 0-.425-.164h-.006a.625.625 0 0 0-.425.165L13.8 4.077l-1.967-1.82a.636.636 0 0 0-.857.001l.001-.001-3.334 3.085a.688.688 0 0 0-.067-.003H.701c-.335 0-.605.251-.605.56v5.958a.52.52 0 0 0 .003.055v18.529c0 .838.737 1.52 1.642 1.52h28.03c.905 0 1.642-.681 1.642-1.52v-5.905h2.482c.334 0 .605-.251.605-.56v-6.985c0-.309-.272-.56-.605-.56zm-3.696-9.973v2.602a1.739 1.739 0 0 0-.428-.055h-1.419l-2.755-2.548h4.601zM18.41 1.392l8.229 7.612h-1.837l-7.311-6.762.919-.849zm-1.775 1.642 6.455 5.97h-3.962l-4.474-4.138 1.981-1.832zm-5.231.408 6.013 5.563h-1.65l-5.187-4.8.825-.763zm2.651 5.562H5.392l4.331-4.007 4.332 4.007zm-10.376 0H1.74a1.77 1.77 0 0 0-.435.056V6.457h5.129L3.679 9.005zm26.523 21.434c0 .221-.194.4-.432.4H1.741c-.239 0-.432-.179-.432-.4V10.525c0-.221.194-.4.432-.4h28.03c.223 0 .406.158.427.36v1.371c0 .022.002.043.004.065v4.509h-5.501c-2.416 0-4.381 1.818-4.381 4.052s1.966 4.053 4.381 4.053h5.501v5.904zm3.087-7.024h-8.588c-1.749 0-3.171-1.315-3.171-2.933s1.422-2.932 3.171-2.932h8.588v5.864z"/><path fill="#536779" style="fill:var(--color3,#536779)" d="M24.73 18.563c-1.144 0-2.076.861-2.076 1.92 0 1.058.931 1.918 2.076 1.918s2.076-.861 2.076-1.919c0-1.059-.931-1.92-2.076-1.92zm0 2.719c-.477 0-.865-.359-.865-.8s.388-.8.865-.8.865.359.865.8-.388.8-.865.8z"/></symbol><symbol id="icon-location" viewBox="0 0 25 32"><path d="M25.379 12.162c0-6.612-5.661-11.937-12.69-11.937S-.001 5.55-.001 12.162c0 6.613 12.69 18.959 12.69 18.959s12.69-12.348 12.69-18.959zm-18.598-.234c0-3.042 2.675-5.559 5.909-5.559s5.909 2.458 5.909 5.559c0 3.043-2.612 5.559-5.909 5.559-3.234 0-5.909-2.516-5.909-5.559z"/></symbol><symbol id="icon-burger-menu" viewBox="0 0 52 32"><path stroke-width="3.556" d="M0 1.778h51.556M0 16h51.556M0 30.222h51.556"/></symbol><symbol id="icon-modal-close" viewBox="0 0 32 32"><path fill="#fff" style="fill:var(--color1,#fff)" d="m31.125 27-11-11L31.083 5a.401.401 0 0 0 0-.584L27.542.875a.401.401 0 0 0-.584 0L16 11.875 5.042.917a.401.401 0 0 0-.584 0L.917 4.458a.401.401 0 0 0 0 .584L11.834 16 .875 26.958a.401.401 0 0 0 0 .584l3.541 3.541c.168.168.459.168.584 0l11-10.958 10.958 10.958a.502.502 0 0 0 .625.043l3.543-3.541a.401.401 0 0 0 0-.584z"/></symbol><symbol id="icon-message" viewBox="0 0 32 32"><path fill="#fff" style="fill:var(--color1,#fff)" d="M28.202 3.848H3.798C1.704 3.848 0 5.484 0 7.495v17.01c0 2.011 1.704 3.647 3.798 3.647h24.404c2.094 0 3.798-1.636 3.798-3.647V7.495c0-2.011-1.704-3.647-3.798-3.647zm0 21.084H3.798c-.308 0-.578-.2-.578-.427V9.744l11.037 9.318c.226.191.514.296.81.296h1.864c.296 0 .584-.105.81-.296l11.038-9.319v14.761c0 .228-.27.427-.578.427zM16 16.162 5.265 7.068h21.47L16 16.162z"/></symbol></defs></svg>