<svg aria-hidden="true" style="width:0;height:0;position:absolute;overflow:hidden" xmlns="http://www.w3.org/2000/svg"><defs><symbol id="icon-search" viewBox="0 0 31 32"><path fill="#f79781" style="fill:var(--color1,#f79781)" d="m26.469 24.586-4.902-5.077A10.184 10.184 0 0 0 23.173 14c0-5.514-4.331-10-9.655-10S3.863 8.486 3.863 14s4.331 10 9.655 10a9.354 9.354 0 0 0 5.319-1.663l4.902 5.077c.753.781 1.977.781 2.73 0s.754-2.047 0-2.828zM6.759 14c0-3.86 3.032-7 6.759-7s6.759 3.14 6.759 7-3.032 7-6.759 7-6.759-3.14-6.759-7z"/><path fill="#f79781" style="fill:var(--color1,#f79781)" d="M18.345 14c0 .552-.433 1-.966 1h-2.897v3c0 .552-.433 1-.966 1s-.966-.448-.966-1v-3H9.653c-.533 0-.966-.448-.966-1s.433-1 .966-1h2.897v-3c0-.552.433-1 .966-1s.966.448.966 1v3h2.897c.533 0 .966.448.966 1z"/></symbol><symbol id="icon-Line-40-Stroke" viewBox="0 0 23 32"><path fill="#f79781" style="fill:var(--color1,#f79781)" d="m22.755 10.542-.391-.015a8.094 8.094 0 0 1-.118 1.097l.386.069c.067-.37.108-.759.124-1.151zm-.239-2.303-.378.103c.093.341.157.706.194 1.081l.39-.038a7.04 7.04 0 0 0-.206-1.145zm-.188 4.581-.367-.138a3.175 3.175 0 0 1-.513.926l.299.253c.235-.277.428-.636.581-1.041zm-.59-6.169a5.112 5.112 0 0 0-.359-.385l-.272.282c.113.109.223.227.331.355.109.13.209.276.3.436l.341-.193a3.236 3.236 0 0 0-.341-.495zm-1.103 7.799-.006-.392a1.1 1.1 0 0 1-.467-.105l-.509-.227-.159.358.509.227c.215.096.427.142.632.139zm-1.07-9.234-.106.377c.307.086.602.209.883.373l.197-.339a4.19 4.19 0 0 0-.974-.412zm-1.091 8.414.159-.358-1.02-.454-.159.358 1.02.454zm-.989-8.547.045.389c.334-.038.66-.051.976-.033l.021-.391a6.2 6.2 0 0 0-1.042.035zm-1.272 12.416a83.72 83.72 0 0 0-.072.481l.388.057.072-.478c.029-.185.047-.373.057-.561l-.391-.021c-.01.177-.027.351-.054.523zm.022-1.581.39-.04a10.32 10.32 0 0 0-.178-1.098l-.383.082c.076.356.135.709.171 1.056zm-.374 3.976.387.061c.049-.311.095-.63.143-.96l-.388-.055c-.047.33-.093.647-.142.955zm.574-7.172.159-.358-1.019-.454-.159.358 1.019.454zm-.953 9.049.379.1c.084-.316.155-.633.219-.956l-.384-.076c-.062.316-.132.625-.213.931zm.487-16.37a3.658 3.658 0 0 0-.543.204l.167.354c.144-.068.305-.129.486-.182.161-.047.321-.091.479-.129l-.092-.381c-.165.04-.331.085-.498.134zm-.17 8.416.376-.109a26.6 26.6 0 0 0-.33-1.049l-.372.124c.115.343.225.688.325 1.033zm-.953 9.745.357.162c.14-.309.262-.612.368-.913l-.369-.131c-.103.29-.22.583-.356.882zm.232-11.921.041.115.37-.13-.04-.115c-.11-.311-.217-.615-.318-.913l-.371.126c.102.3.21.607.32.918zm-.897 13.187a6.491 6.491 0 0 1-.268.414l.321.225c.1-.143.195-.289.284-.438.086-.144.167-.286.245-.426l-.343-.189c-.075.136-.154.274-.238.415zm.245-15.155.377-.108a9.546 9.546 0 0 1-.242-1.041l-.387.064c.057.347.145.71.252 1.085zm-.309-2.222.39.038c.035-.356.137-.662.321-.921l-.319-.228a2.247 2.247 0 0 0-.393 1.111zm-.23 4.136.508.226.159-.358-.508-.226-.008.017.008-.017a1.028 1.028 0 0 1-.378-.288l-.302.25c.139.168.311.303.52.396l.08-.179-.08.179zM12.58 26.708l.259.294c.263-.231.511-.473.742-.725l-.289-.265a9.186 9.186 0 0 1-.712.695zm.327-16.654.386-.066a7.034 7.034 0 0 1-.082-1.104l-.392.003c.003.418.026.813.087 1.167zm-.038-2.818-.023.502.392.017.023-.497.029-.641-.392-.016-.028.636zm.054-1.766.392-.001a13.366 13.366 0 0 0-.047-1.155l-.39.035c.032.365.045.741.045 1.121zm-1.951 22.425.208.332c.293-.184.578-.376.853-.578l-.232-.316a13.67 13.67 0 0 1-.829.562zm1.732-24.64.381-.093a4.771 4.771 0 0 0-.411-1.11l-.346.183c.164.311.287.653.376 1.02zm-1.023-1.866.264-.289a3.355 3.355 0 0 0-.482-.366 3.884 3.884 0 0 0-.489-.26l-.158.358c.152.067.299.145.439.233.156.098.298.206.426.324zm-2.473 27.47.169.353c.309-.148.614-.303.914-.467l-.187-.344c-.293.16-.592.312-.896.457zM9.854.546 9.922.16A6.311 6.311 0 0 0 8.84.069l-.001.392c.349.001.689.027 1.014.085zM7.353 29.65l.139.366a24.5 24.5 0 0 0 .951-.382l-.153-.361c-.311.132-.624.258-.936.376zm-1.911.652.115.375c.32-.098.645-.202.973-.314l-.126-.371c-.324.11-.645.214-.961.31zM7.815.527 7.767.138c-.352.043-.705.106-1.055.182l.084.383c.34-.074.681-.134 1.019-.176zM3.491 30.838l.094.381c.317-.078.648-.164.989-.257l-.104-.378c-.337.093-.665.177-.979.255zM5.79.962 5.679.586c-.347.102-.685.214-1.01.33l.132.369c.319-.114.65-.224.989-.323zM1.515 31.27l.074.385c.3-.057.636-.125 1.001-.205l-.084-.383a39.07 39.07 0 0 1-.991.203zM3.827 1.662l-.15-.362c-.353.147-.68.292-.971.428l.166.355c.286-.134.608-.277.955-.421zM1.483 2.793l.007-.004.022-.013.088-.049c.077-.043.191-.105.337-.181l-.182-.347a18.903 18.903 0 0 0-.436.236l-.024.014-.009.005.098.17.098.17zM.155 31.501l-.096.013a.253.253 0 0 0-.024.003l-.007.001.003.023.022.171.025.194.009-.001.009-.001.016-.002.098-.014c.086-.012.212-.031.374-.057l-.062-.387c-.159.026-.283.044-.367.056z"/></symbol><symbol id="icon-Line-41-Stroke" viewBox="0 0 27 32"><path fill="#f79781" style="fill:var(--color1,#f79781)" d="m26.707 13.435-.45-.065c-.056.389-.184.78-.369 1.159l.409.2c.203-.416.347-.852.411-1.294zm-.347-2.019a8 8 0 0 0-.397-.652l-.376.256c.123.18.247.384.374.615.098.179.173.362.226.549l.438-.124a3.07 3.07 0 0 0-.265-.644zm-.795 4.439-.351-.289c-.264.32-.564.614-.887.871l.283.356c.348-.276.671-.593.955-.937zm-2.092 1.65-.194-.412a3.882 3.882 0 0 1-1.164.35l.055.452c.437-.054.878-.19 1.302-.39zm-.231-8.014.094.445c.505-.107.913-.07 1.286.129l.214-.401c-.491-.262-1.014-.295-1.595-.173zm-2.45 8.262.157-.427a2.164 2.164 0 0 1-.94-.679l-.353.287a2.631 2.631 0 0 0 1.137.819zm.337-7.416-.467.237-.093.047.205.406.092-.047.468-.237c.232-.117.451-.225.659-.321l-.191-.413a21.27 21.27 0 0 0-.673.328zM19 15.733l.427-.157a7.445 7.445 0 0 1-.322-1.217l-.448.082c.084.456.195.893.343 1.293zm-.659-3.96.097.178c.005.39.022.785.053 1.176l.454-.036a17.463 17.463 0 0 1-.051-1.098c.244-.129.499-.262.768-.4l-.208-.405c-.396.203-.766.397-1.112.585zm.121-1.273.455.021c.021-.458.052-.893.087-1.286l-.453-.04c-.036.398-.067.84-.088 1.306zm.304-3.119-.005.033c-.017.111-.04.272-.067.475l.451.059c.026-.199.049-.358.066-.466l.019-.123.005-.031.001-.008v-.002l.024-.14-.115-.083a8.759 8.759 0 0 1-.438-.338l-.29.351c.113.093.229.185.349.274zm-2.576 5.732.274.363c.311-.235.648-.461 1.019-.688l-.238-.388c-.38.233-.73.467-1.056.713zm.828-7.345c.18.186.362.373.547.557l.321-.323c-.182-.18-.358-.362-.537-.547l-.256-.263-.325.318.251.258zm-2.628 9.163.367.269c.249-.34.509-.644.788-.925l-.323-.321c-.296.298-.57.619-.832.977zm-3.087 11.784.42.175c.166-.399.277-.808.352-1.223l-.448-.081c-.07.389-.173.766-.324 1.129zm.45-2.318.454.023c.021-.407.025-.821.029-1.235l-.455-.004a30.05 30.05 0 0 1-.028 1.216zm-1.417 3.767c-.155.158-.309.31-.462.454l.313.331c.157-.148.315-.304.475-.467a5.17 5.17 0 0 0 .42-.484l-.361-.277c-.115.15-.242.297-.384.442zm2.784-11.03.412.194c.188-.4.375-.764.564-1.097l-.396-.224a16.78 16.78 0 0 0-.58 1.128zm-1.314 4.813.455.019c.016-.4.046-.8.101-1.199l-.451-.062c-.058.418-.088.834-.104 1.243zm.57-3.073c-.079.2-.147.399-.206.599l.436.129c.055-.187.119-.374.193-.561.079-.2.157-.393.234-.579l-.42-.174c-.078.189-.157.384-.236.586zm3.586-14.146.305-.338a9.44 9.44 0 0 0-.907-.729l-.262.372c.311.218.595.452.864.695zM7.845 30.206l.24.386c.357-.222.722-.478 1.095-.771l-.282-.357c-.36.284-.712.53-1.054.743zm-2.325 1.03.116.44a8.227 8.227 0 0 0 1.27-.452l-.186-.415a7.736 7.736 0 0 1-1.199.427zm8.633-27.768.204-.407a8.128 8.128 0 0 0-1.08-.445l-.144.432c.372.124.709.265 1.02.421zM3.01 31.394l-.067.45c.4.059.854.086 1.355.053l-.03-.454a5.897 5.897 0 0 1-1.259-.049zm9.052-28.63.091-.446a12.314 12.314 0 0 0-1.146-.175l-.048.452c.395.042.762.098 1.104.168zM9.84 2.521l.014-.455a17.969 17.969 0 0 0-.576-.009c-.195 0-.389-.003-.581-.009l-.015.455c.197.006.396.01.596.01.193 0 .38.003.562.009zM1.386 30.875a2.425 2.425 0 0 1-.103-.059l-.013-.008-.011-.007-.005-.003-.127.189-.127.189.001.001.003.002.003.002.006.004.033.02a4.822 4.822 0 0 0 .58.285l.171-.422a3.988 3.988 0 0 1-.411-.192zM7.495 2.428l.042-.453c-.394-.037-.78-.084-1.155-.141l-.067.45a22.3 22.3 0 0 0 1.181.144zm-2.35-.35.091-.446c-.395-.08-.775-.168-1.136-.26l-.112.441c.368.094.755.183 1.158.265zm-2.3-.584.133-.435A24.48 24.48 0 0 1 1.871.693l-.153.428c.334.12.712.247 1.127.373zM.062.448l.01.005L.1.466l.106.049C.299.557.435.618.61.691L.786.272C.615.2.483.142.394.101l-.1-.046A.696.696 0 0 1 .269.043L.263.04.261.039l-.1.204-.1.204z"/></symbol><symbol id="icon-location" viewBox="0 0 27 32"><path fill="#f79781" style="fill:var(--color1,#f79781)" d="M26.502 12.863c0-6.628-5.756-11.965-12.903-11.965S.696 6.235.696 12.863s12.903 19.003 12.903 19.003 12.903-12.375 12.903-19.003zM7.59 12.628c0-3.05 2.72-5.572 6.009-5.572s6.009 2.463 6.009 5.572c0 3.05-2.657 5.572-6.009 5.572-3.289 0-6.009-2.522-6.009-5.572z"/></symbol><symbol id="icon-Arrow-9" viewBox="0 0 10 32"><path fill="#f79781" style="fill:var(--color1,#f79781)" d="M3.727 31.553a.616.616 0 0 0 .823.283l4.978-2.427a.616.616 0 0 0-.54-1.106l-4.425 2.158-2.158-4.425a.616.616 0 0 0-1.106.54l2.428 4.978zM.45 1.207C4.61 8.722 8.035 18.49 3.697 31.083l1.164.401C9.354 18.438 5.78 8.295 1.527.611L.45 1.207z"/></symbol><symbol id="icon-Arrow-8" viewBox="0 0 13 32"><path fill="#f79781" style="fill:var(--color1,#f79781)" d="M6.15 31.104a.615.615 0 0 1-.849.193L.615 28.345a.615.615 0 1 1 .656-1.042l4.165 2.624 2.624-4.165a.615.615 0 1 1 1.042.656L6.15 31.104zm6.543-29.813C7.744 8.312 3.282 17.651 6.23 30.639l-1.2.272C1.976 17.455 6.628 7.759 11.687.581l1.006.709z"/></symbol><symbol id="icon-Arrow-4" viewBox="0 0 21 32"><path fill="#f79781" style="fill:var(--color1,#f79781)" d="M13.397 31.435a.666.666 0 0 0 .776.535l5.901-1.086a.666.666 0 1 0-.241-1.311l-5.245.965-.965-5.245a.666.666 0 1 0-1.311.241l1.086 5.901zM.236 1.437c15.668 4.98 19.498 20.458 13.267 29.498l1.098.757C21.397 21.831 17.064 5.387.64.166L.236 1.437z"/></symbol><symbol id="icon-agree" viewBox="0 0 32 32"><path fill="#536779" style="fill:var(--color2,#536779)" d="M12.102 32a3.183 3.183 0 0 1-2.54-1.264L1.394 19.949a3.187 3.187 0 0 1 5.081-3.847l5.372 7.094L25.359 1.501a3.185 3.185 0 1 1 5.409 3.369L14.806 30.497a3.186 3.186 0 0 1-2.705 1.502z"/></symbol><symbol id="icon-arrow-right" viewBox="0 0 32 32"><path d="m19.414 27.414 10-10a2 2 0 0 0 0-2.828l-10-10a2 2 0 1 0-2.828 2.828L23.172 14H4a2 2 0 1 0 0 4h19.172l-6.586 6.586c-.39.39-.586.902-.586 1.414s.195 1.024.586 1.414a2 2 0 0 0 2.828 0z"/></symbol><symbol id="icon-arrow-left" viewBox="0 0 32 32"><path d="m12.586 27.414-10-10a2 2 0 0 1 0-2.828l10-10a2 2 0 1 1 2.828 2.828L8.828 14H28a2 2 0 1 1 0 4H8.828l6.586 6.586c.39.39.586.902.586 1.414s-.195 1.024-.586 1.414a2 2 0 0 1-2.828 0z"/></symbol></defs></svg>