<svg viewBox="0 0 50 51" fill="none" xmlns="http://www.w3.org/2000/svg"><path d="M22.067.43c-3.315.373-7.28 1.758-10.179 3.547-2.345 1.46-5.03 3.846-6.63 5.913C2.53 13.416.815 17.475.144 21.982c-.213 1.449-.181 5.454.053 6.978 1.098 7.084 5.02 13.264 10.946 17.216a25.541 25.541 0 0 0 10.296 3.953c1.748.255 5.372.255 7.12 0 4.38-.65 8.687-2.525 12.108-5.263 4.892-3.92 8.143-9.557 9.134-15.82.267-1.695.267-5.722 0-7.416-.884-5.582-3.506-10.6-7.546-14.446C38.31 3.434 33.077.994 27.748.419c-1.215-.138-4.466-.128-5.681.01Zm5.734 15.01c1.535.65 3.848 1.63 5.138 2.163 1.29.543 2.59 1.098 2.877 1.236.299.139 1.759.756 3.251 1.385 4.807 2.024 5.35 2.27 5.202 2.354-.075.054-1.269.746-2.644 1.556l-2.505 1.48-.031 2.685c-.022 2.27 0 2.685.127 2.685.224 0 .704.618.704.906 0 .298-.224.373-1.194.373h-.725V31.9c0-.255.096-.458.32-.703l.32-.34v-4.965l-1.908 1.076-1.908 1.086-.043 1.598-.031 1.598-.448.906c-.533 1.087-.512 1.055-1.524 1.875-1.482 1.204-2.516 1.62-5.17 2.078-2.153.362-3.037.383-4.839.085-1.183-.192-3.293-.82-3.986-1.172-.543-.288-2.11-1.524-2.462-1.95-.746-.916-.852-1.3-.916-3.25l-.054-1.757-4.828-2.738c-2.654-1.513-4.828-2.78-4.828-2.823 0-.043.927-.469 2.057-.948a7641.31 7641.31 0 0 1 12.769-5.423c2.025-.852 3.826-1.63 3.997-1.704.18-.086.362-.16.405-.16.053-.011 1.342.522 2.877 1.171Zm12.407 18.325c.234.628.245.67.064.873-.32.341-.736.501-1.365.501-.66 0-1.13-.202-1.332-.575-.085-.181-.075-.32.064-.65.096-.235.213-.522.256-.64.074-.191.17-.212 1.066-.202l.99.021.257.672Z" fill="#D3DDE6"/></svg>