<svg viewBox="0 0 50 51" fill="none" xmlns="http://www.w3.org/2000/svg"><path d="M22.067.43c-3.315.373-7.28 1.758-10.179 3.547-2.345 1.46-5.03 3.846-6.63 5.913C2.53 13.416.815 17.475.144 21.982c-.213 1.449-.181 5.454.053 6.978 1.098 7.084 5.02 13.264 10.946 17.216a25.541 25.541 0 0 0 10.296 3.953c1.748.255 5.372.255 7.12 0 4.38-.65 8.687-2.525 12.108-5.263 4.892-3.92 8.143-9.557 9.134-15.82.267-1.695.267-5.722 0-7.416-.884-5.582-3.506-10.6-7.546-14.446C38.31 3.434 33.077.994 27.748.419c-1.215-.138-4.466-.128-5.681.01ZM32.16 12.308l5.639 5.625-.032 8.15c-.032 7.575-.043 8.182-.224 8.577-.256.575-.874 1.203-1.46 1.48-.47.213-.64.224-5.457.256-4.7.032-4.978.021-5.031-.16-.128-.404-.597-2.216-.597-2.29 0-.043 2.292-.096 5.095-.107l5.084-.032.032-7.958.021-7.958-3.325-.032c-3.763-.032-3.72-.032-4.637-.927-.724-.692-.778-1.023-.778-4.666V9.144h-3.943c-3.784 0-3.944.01-4.05.203-.064.138-.107 2.003-.107 5.327v5.124h-.66c-.374 0-.928.074-1.227.149l-.565.15v-5.658c0-6.403-.032-6.136.853-6.989.757-.735.81-.735 5.543-.745l4.199-.011 5.627 5.614Zm-12.896 8.566c1.918.405 3.56 2.013 4.082 4.006.725 2.77-1.044 5.742-3.837 6.477-.778.192-2.057.202-2.771.01-2.313-.607-3.912-2.546-4.072-4.91-.138-1.982.79-3.719 2.612-4.933 1.001-.671 2.632-.927 3.986-.65Zm4.306 11.08c.32 1.193 1.002 3.782 1.503 5.742.5 1.96.959 3.75 1.012 3.974.192.681.299.724-2.227-.757-.715-.426-1.365-.799-1.45-.82-.096-.043-.245.128-.448.5-.788 1.492-1.918 3.271-1.982 3.154-.043-.075-.362-1.246-.714-2.589a2710.01 2710.01 0 0 0-1.45-5.55c-.447-1.705-.81-3.154-.81-3.207 0-.064.363-.085.885-.053 1.044.053 1.833-.085 2.697-.501.692-.33 1.716-1.204 2.078-1.78.128-.201.245-.35.277-.33.021.033.31 1.023.629 2.217Zm-8.537-.65c.042.064.32.255.618.426l.543.309.874 3.302.885 3.303-.416 1.566c-.224.852-.437 1.577-.458 1.609-.032.021-.181-.192-.341-.469-.17-.277-.554-.948-.874-1.492l-.565-.969-.831.447c-.448.256-1.152.661-1.556.906-.672.416-.725.437-.661.203.287-1.098 1.45-5.434 1.897-7.15.522-1.96.682-2.322.885-1.991Z" fill="#D3DDE6"/></svg>