<svg width="21" height="52" viewBox="0 0 21 52" fill="none" xmlns="http://www.w3.org/2000/svg">
<path d="M9.99383 50.5436C9.69944 51.0109 9.08198 51.1511 8.6147 50.8567L0.99993 46.0593C0.532649 45.7649 0.392498 45.1474 0.686891 44.6801C0.981285 44.2128 1.59874 44.0727 2.06602 44.3671L8.83471 48.6315L13.0991 41.8628C13.3935 41.3955 14.0109 41.2553 14.4782 41.5497C14.9455 41.8441 15.0857 42.4616 14.7913 42.9289L9.99383 50.5436ZM20.6257 2.09803C12.5836 13.5067 5.33207 28.6824 10.1229 49.7892L8.17255 50.2319C3.20937 28.366 10.7688 12.6098 18.991 0.945724L20.6257 2.09803Z" fill="#F79781"/>
</svg>
