<svg width="31" height="48" viewBox="0 0 31 48" fill="none" xmlns="http://www.w3.org/2000/svg">
<path d="M20.0949 47.1523C20.1949 47.6955 20.7162 48.0548 21.2594 47.9548L30.1108 46.3262C30.654 46.2262 31.0133 45.7049 30.9133 45.1617C30.8134 44.6185 30.292 44.2592 29.7489 44.3592L21.8809 45.8069L20.4332 37.939C20.3333 37.3958 19.8119 37.0365 19.2688 37.1365C18.7256 37.2364 18.3663 37.7578 18.4662 38.3009L20.0949 47.1523ZM0.354621 2.15618C23.8571 9.62647 29.6013 32.8426 20.255 46.4039L21.9018 47.5388C32.0957 32.7476 25.5961 8.08061 0.960456 0.250142L0.354621 2.15618Z" fill="#F79781"/>
</svg>
