<svg width="17" height="52" viewBox="0 0 17 52" fill="none" xmlns="http://www.w3.org/2000/svg">
<path d="M6.05566 51.274C6.29772 51.7704 6.89638 51.9766 7.39279 51.7345L15.4823 47.7899C15.9787 47.5478 16.1849 46.9491 15.9428 46.4527C15.7007 45.9563 15.1021 45.7501 14.6057 45.9922L7.41502 49.4986L3.90864 42.3079C3.66657 41.8115 3.06792 41.6053 2.57151 41.8474C2.0751 42.0895 1.86891 42.6881 2.11098 43.1845L6.05566 51.274ZM0.732015 1.96201C7.4915 14.1744 13.0572 30.0461 6.009 50.5101L7.89998 51.1614C15.2016 29.9614 9.3927 13.4793 2.48186 0.993483L0.732015 1.96201Z" fill="#F79781"/>
</svg>
