<svg width="28" height="29" viewBox="0 0 28 29" fill="none" xmlns="http://www.w3.org/2000/svg">
<path d="M23.9872 22.2811L19.5449 17.68C20.4627 16.2473 21 14.5317 21 12.6875C21 7.69044 17.0747 3.625 12.25 3.625C7.42525 3.625 3.5 7.69044 3.5 12.6875C3.5 17.6846 7.42525 21.75 12.25 21.75C14.0306 21.75 15.687 21.1936 17.0704 20.2429L21.5127 24.8439C22.1952 25.5517 23.3047 25.5517 23.9872 24.8439C24.6706 24.1362 24.6706 22.9888 23.9872 22.2811ZM6.125 12.6875C6.125 9.18937 8.8725 6.34375 12.25 6.34375C15.6275 6.34375 18.375 9.18937 18.375 12.6875C18.375 16.1856 15.6275 19.0312 12.25 19.0312C8.8725 19.0312 6.125 16.1856 6.125 12.6875Z" fill="#F79781"/>
<path d="M16.625 12.6875C16.625 13.1877 16.233 13.5938 15.75 13.5938H13.125V16.3125C13.125 16.8127 12.733 17.2188 12.25 17.2188C11.767 17.2188 11.375 16.8127 11.375 16.3125V13.5938H8.75C8.267 13.5938 7.875 13.1877 7.875 12.6875C7.875 12.1873 8.267 11.7812 8.75 11.7812H11.375V9.0625C11.375 8.56225 11.767 8.15625 12.25 8.15625C12.733 8.15625 13.125 8.56225 13.125 9.0625V11.7812H15.75C16.233 11.7812 16.625 12.1873 16.625 12.6875Z" fill="#F79781"/>
</svg>
