<svg aria-hidden="true" style="position: absolute; width: 0; height: 0; overflow: hidden;" version="1.1" xmlns="http://www.w3.org/2000/svg" xmlns:xlink="http://www.w3.org/1999/xlink">
<defs>
<symbol id="icon-search" viewBox="0 0 31 32">
<path fill="#f79781" style="fill: var(--color1, #f79781)" d="M26.469 24.586l-4.902-5.077c1.013-1.581 1.606-3.474 1.606-5.509 0-5.514-4.331-10-9.655-10s-9.655 4.486-9.655 10c0 5.514 4.331 10 9.655 10 1.965 0 3.793-0.614 5.319-1.663l4.902 5.077c0.753 0.781 1.977 0.781 2.73 0s0.754-2.047 0-2.828zM6.759 14c0-3.86 3.032-7 6.759-7s6.759 3.14 6.759 7c0 3.86-3.032 7-6.759 7s-6.759-3.14-6.759-7z"></path>
<path fill="#f79781" style="fill: var(--color1, #f79781)" d="M18.345 14c0 0.552-0.433 1-0.966 1h-2.897v3c0 0.552-0.433 1-0.966 1s-0.966-0.448-0.966-1v-3h-2.897c-0.533 0-0.966-0.448-0.966-1s0.433-1 0.966-1h2.897v-3c0-0.552 0.433-1 0.966-1s0.966 0.448 0.966 1v3h2.897c0.533 0 0.966 0.448 0.966 1z"></path>
</symbol>
<symbol id="icon-Line-40-Stroke" viewBox="0 0 23 32">
<path fill="#f79781" style="fill: var(--color1, #f79781)" d="M22.755 10.542l-0.391-0.015c-0.015 0.375-0.055 0.745-0.118 1.097l0.386 0.069c0.067-0.37 0.108-0.759 0.124-1.151zM22.516 8.239l-0.378 0.103c0.093 0.341 0.157 0.706 0.194 1.081l0.39-0.038c-0.039-0.394-0.107-0.78-0.206-1.145zM22.328 12.82l-0.367-0.138c-0.142 0.377-0.316 0.693-0.513 0.926l0.299 0.253c0.235-0.277 0.428-0.636 0.581-1.041zM21.738 6.651c-0.116-0.138-0.236-0.266-0.359-0.385l-0.272 0.282c0.113 0.109 0.223 0.227 0.331 0.355 0.109 0.13 0.209 0.276 0.3 0.436l0.341-0.193c-0.101-0.178-0.214-0.345-0.341-0.495zM20.635 14.45l-0.006-0.392c-0.142 0.002-0.297-0.029-0.467-0.105l-0.509-0.227-0.159 0.358 0.509 0.227c0.215 0.096 0.427 0.142 0.632 0.139zM19.565 5.216l-0.106 0.377c0.307 0.086 0.602 0.209 0.883 0.373l0.197-0.339c-0.311-0.181-0.637-0.317-0.974-0.412zM18.474 13.63l0.159-0.358-1.020-0.454-0.159 0.358 1.020 0.454zM17.485 5.083l0.045 0.389c0.334-0.038 0.66-0.051 0.976-0.033l0.021-0.391c-0.34-0.019-0.689-0.005-1.042 0.035zM16.213 17.499c-0.025 0.164-0.049 0.324-0.072 0.481l0.388 0.057c0.023-0.156 0.047-0.315 0.072-0.478 0.029-0.185 0.047-0.373 0.057-0.561l-0.391-0.021c-0.010 0.177-0.027 0.351-0.054 0.523zM16.235 15.918l0.39-0.040c-0.038-0.364-0.099-0.731-0.178-1.098l-0.383 0.082c0.076 0.356 0.135 0.709 0.171 1.056zM15.861 19.894l0.387 0.061c0.049-0.311 0.095-0.63 0.143-0.96l-0.388-0.055c-0.047 0.33-0.093 0.647-0.142 0.955zM16.435 12.722l0.159-0.358-1.019-0.454-0.159 0.358 1.019 0.454zM15.482 21.771l0.379 0.1c0.084-0.316 0.155-0.633 0.219-0.956l-0.384-0.076c-0.062 0.316-0.132 0.625-0.213 0.931zM15.969 5.401c-0.198 0.058-0.379 0.126-0.543 0.204l0.167 0.354c0.144-0.068 0.305-0.129 0.486-0.182 0.161-0.047 0.321-0.091 0.479-0.129l-0.092-0.381c-0.165 0.040-0.331 0.085-0.498 0.134zM15.799 13.817l0.376-0.109c-0.102-0.352-0.214-0.703-0.33-1.049l-0.372 0.124c0.115 0.343 0.225 0.688 0.325 1.033zM14.846 23.562l0.357 0.162c0.14-0.309 0.262-0.612 0.368-0.913l-0.369-0.131c-0.103 0.29-0.22 0.583-0.356 0.882zM15.078 11.641c0.014 0.038 0.027 0.077 0.041 0.115l0.37-0.13c-0.013-0.038-0.027-0.077-0.040-0.115-0.11-0.311-0.217-0.615-0.318-0.913l-0.371 0.126c0.102 0.3 0.21 0.607 0.32 0.918zM14.181 24.828c-0.084 0.141-0.173 0.279-0.268 0.414l0.321 0.225c0.1-0.143 0.195-0.289 0.284-0.438 0.086-0.144 0.167-0.286 0.245-0.426l-0.343-0.189c-0.075 0.136-0.154 0.274-0.238 0.415zM14.426 9.673l0.377-0.108c-0.104-0.366-0.188-0.714-0.242-1.041l-0.387 0.064c0.057 0.347 0.145 0.71 0.252 1.085zM14.117 7.451l0.39 0.038c0.035-0.356 0.137-0.662 0.321-0.921l-0.319-0.228c-0.233 0.326-0.353 0.702-0.393 1.111zM13.887 11.587l0.508 0.226 0.159-0.358-0.508-0.226c0 0 0 0-0.008 0.017l0.008-0.017c-0.152-0.068-0.275-0.164-0.378-0.288l-0.302 0.25c0.139 0.168 0.311 0.303 0.52 0.396l0.080-0.179c-0.080 0.179-0.080 0.179-0.080 0.179zM12.58 26.708l0.259 0.294c0.263-0.231 0.511-0.473 0.742-0.725l-0.289-0.265c-0.221 0.241-0.459 0.473-0.712 0.695zM12.907 10.054l0.386-0.066c-0.056-0.325-0.078-0.696-0.082-1.104l-0.392 0.003c0.003 0.418 0.026 0.813 0.087 1.167zM12.869 7.236c-0.008 0.168-0.016 0.335-0.023 0.502l0.392 0.017c0.007-0.162 0.015-0.328 0.023-0.497 0.010-0.212 0.020-0.427 0.029-0.641l-0.392-0.016c-0.009 0.215-0.019 0.426-0.028 0.636zM12.923 5.47l0.392-0.001c-0.001-0.388-0.013-0.776-0.047-1.155l-0.39 0.035c0.032 0.365 0.045 0.741 0.045 1.121zM10.972 27.895l0.208 0.332c0.293-0.184 0.578-0.376 0.853-0.578l-0.232-0.316c-0.266 0.195-0.543 0.383-0.829 0.562zM12.704 3.255l0.381-0.093c-0.096-0.392-0.228-0.766-0.411-1.11l-0.346 0.183c0.164 0.311 0.287 0.653 0.376 1.020zM11.681 1.389l0.264-0.289c-0.146-0.133-0.306-0.256-0.482-0.366-0.157-0.099-0.321-0.185-0.489-0.26l-0.158 0.358c0.152 0.067 0.299 0.145 0.439 0.233 0.156 0.098 0.298 0.206 0.426 0.324zM9.208 28.859l0.169 0.353c0.309-0.148 0.614-0.303 0.914-0.467l-0.187-0.344c-0.293 0.16-0.592 0.312-0.896 0.457zM9.854 0.546l0.068-0.386c-0.35-0.062-0.713-0.090-1.082-0.091l-0.001 0.392c0.349 0.001 0.689 0.027 1.014 0.085zM7.353 29.65l0.139 0.366c0.317-0.12 0.635-0.247 0.951-0.382l-0.153-0.361c-0.311 0.132-0.624 0.258-0.936 0.376zM5.442 30.302l0.115 0.375c0.32-0.098 0.645-0.202 0.973-0.314l-0.126-0.371c-0.324 0.11-0.645 0.214-0.961 0.31zM7.815 0.527l-0.048-0.389c-0.352 0.043-0.705 0.106-1.055 0.182l0.084 0.383c0.34-0.074 0.681-0.134 1.019-0.176zM3.491 30.838l0.094 0.381c0.317-0.078 0.648-0.164 0.989-0.257l-0.104-0.378c-0.337 0.093-0.665 0.177-0.979 0.255zM5.79 0.962l-0.111-0.376c-0.347 0.102-0.685 0.214-1.010 0.33l0.132 0.369c0.319-0.114 0.65-0.224 0.989-0.323zM1.515 31.27l0.074 0.385c0.3-0.057 0.636-0.125 1.001-0.205l-0.084-0.383c-0.361 0.079-0.694 0.146-0.991 0.203zM3.827 1.662l-0.15-0.362c-0.353 0.147-0.68 0.292-0.971 0.428l0.166 0.355c0.286-0.134 0.608-0.277 0.955-0.421zM1.483 2.793l0.007-0.004c0.005-0.003 0.012-0.007 0.022-0.013 0.020-0.011 0.049-0.028 0.088-0.049 0.077-0.043 0.191-0.105 0.337-0.181l-0.182-0.347c-0.149 0.078-0.265 0.141-0.345 0.185-0.040 0.022-0.070 0.039-0.091 0.051-0.010 0.006-0.018 0.010-0.024 0.014l-0.009 0.005c0 0 0 0 0.098 0.17l0.098 0.17zM0.155 31.501c-0.042 0.006-0.074 0.010-0.096 0.013-0.011 0.001-0.019 0.002-0.024 0.003l-0.007 0.001h-0c0 0 0 0 0.003 0.023l0.022 0.171c0.025 0.194 0.025 0.194 0.025 0.194h0l0.009-0.001 0.009-0.001c0.005-0.001 0.010-0.001 0.016-0.002 0.022-0.003 0.055-0.008 0.098-0.014 0.086-0.012 0.212-0.031 0.374-0.057l-0.062-0.387c-0.159 0.026-0.283 0.044-0.367 0.056z"></path>
</symbol>
<symbol id="icon-Line-41-Stroke" viewBox="0 0 27 32">
<path fill="#f79781" style="fill: var(--color1, #f79781)" d="M26.707 13.435l-0.45-0.065c-0.056 0.389-0.184 0.78-0.369 1.159l0.409 0.2c0.203-0.416 0.347-0.852 0.411-1.294zM26.36 11.416c-0.132-0.24-0.264-0.457-0.397-0.652l-0.376 0.256c0.123 0.18 0.247 0.384 0.374 0.615 0.098 0.179 0.173 0.362 0.226 0.549l0.438-0.124c-0.062-0.219-0.15-0.435-0.265-0.644zM25.565 15.855l-0.351-0.289c-0.264 0.32-0.564 0.614-0.887 0.871l0.283 0.356c0.348-0.276 0.671-0.593 0.955-0.937zM23.473 17.505l-0.194-0.412c-0.388 0.182-0.782 0.303-1.164 0.35l0.055 0.452c0.437-0.054 0.878-0.19 1.302-0.39zM23.242 9.491l0.094 0.445c0.505-0.107 0.913-0.070 1.286 0.129l0.214-0.401c-0.491-0.262-1.014-0.295-1.595-0.173zM20.792 17.753l0.157-0.427c-0.179-0.066-0.352-0.156-0.515-0.273-0.155-0.111-0.296-0.247-0.425-0.406l-0.353 0.287c0.151 0.187 0.322 0.351 0.513 0.488 0.197 0.142 0.406 0.251 0.624 0.331zM21.129 10.337c-0.159 0.081-0.315 0.159-0.467 0.237l-0.093 0.047 0.205 0.406 0.092-0.047c0.152-0.077 0.308-0.156 0.468-0.237 0.232-0.117 0.451-0.225 0.659-0.321l-0.191-0.413c-0.214 0.099-0.438 0.209-0.673 0.328zM19 15.733l0.427-0.157c-0.136-0.37-0.242-0.781-0.322-1.217l-0.448 0.082c0.084 0.456 0.195 0.893 0.343 1.293zM18.341 11.773l0.097 0.178c0.005 0.39 0.022 0.785 0.053 1.176l0.454-0.036c-0.029-0.364-0.045-0.732-0.051-1.098 0.244-0.129 0.499-0.262 0.768-0.4l-0.208-0.405c-0.396 0.203-0.766 0.397-1.112 0.585zM18.462 10.5l0.455 0.021c0.021-0.458 0.052-0.893 0.087-1.286l-0.453-0.040c-0.036 0.398-0.067 0.84-0.088 1.306zM18.766 7.381c-0.002 0.010-0.003 0.021-0.005 0.033-0.017 0.111-0.040 0.272-0.067 0.475l0.451 0.059c0.026-0.199 0.049-0.358 0.066-0.466 0.008-0.054 0.015-0.096 0.019-0.123 0.002-0.014 0.004-0.024 0.005-0.031l0.001-0.008 0-0.002 0.024-0.14-0.115-0.083c-0.151-0.109-0.297-0.222-0.438-0.338l-0.29 0.351c0.113 0.093 0.229 0.185 0.349 0.274zM16.19 13.113l0.274 0.363c0.311-0.235 0.648-0.461 1.019-0.688l-0.238-0.388c-0.38 0.233-0.73 0.467-1.056 0.713zM17.018 5.768c0.18 0.186 0.362 0.373 0.547 0.557l0.321-0.323c-0.182-0.18-0.358-0.362-0.537-0.547-0.085-0.087-0.17-0.175-0.256-0.263l-0.325 0.318c0.083 0.085 0.167 0.171 0.251 0.258zM14.39 14.931l0.367 0.269c0.249-0.34 0.509-0.644 0.788-0.925l-0.323-0.321c-0.296 0.298-0.57 0.619-0.832 0.977zM11.303 26.715l0.42 0.175c0.166-0.399 0.277-0.808 0.352-1.223l-0.448-0.081c-0.070 0.389-0.173 0.766-0.324 1.129zM11.753 24.397l0.454 0.023c0.021-0.407 0.025-0.821 0.029-1.235l-0.455-0.004c-0.004 0.415-0.008 0.819-0.028 1.216zM10.336 28.164c-0.155 0.158-0.309 0.31-0.462 0.454l0.313 0.331c0.157-0.148 0.315-0.304 0.475-0.467 0.155-0.158 0.294-0.319 0.42-0.484l-0.361-0.277c-0.115 0.15-0.242 0.297-0.384 0.442zM13.12 17.134l0.412 0.194c0.188-0.4 0.375-0.764 0.564-1.097l-0.396-0.224c-0.196 0.345-0.387 0.719-0.58 1.128zM11.806 21.947l0.455 0.019c0.016-0.4 0.046-0.8 0.101-1.199l-0.451-0.062c-0.058 0.418-0.088 0.834-0.104 1.243zM12.376 18.874c-0.079 0.2-0.147 0.399-0.206 0.599l0.436 0.129c0.055-0.187 0.119-0.374 0.193-0.561 0.079-0.2 0.157-0.393 0.234-0.579l-0.42-0.174c-0.078 0.189-0.157 0.384-0.236 0.586zM15.962 4.728l0.305-0.338c-0.28-0.253-0.578-0.498-0.907-0.729l-0.262 0.372c0.311 0.218 0.595 0.452 0.864 0.695zM7.845 30.206l0.24 0.386c0.357-0.222 0.722-0.478 1.095-0.771l-0.282-0.357c-0.36 0.284-0.712 0.53-1.054 0.743zM5.52 31.236l0.116 0.44c0.405-0.107 0.829-0.254 1.27-0.452l-0.186-0.415c-0.419 0.188-0.819 0.327-1.199 0.427zM14.153 3.468l0.204-0.407c-0.33-0.165-0.688-0.315-1.080-0.445l-0.144 0.432c0.372 0.124 0.709 0.265 1.020 0.421zM3.010 31.394l-0.067 0.45c0.4 0.059 0.854 0.086 1.355 0.053l-0.030-0.454c-0.467 0.031-0.889 0.006-1.259-0.049zM12.062 2.764l0.091-0.446c-0.357-0.073-0.738-0.131-1.146-0.175l-0.048 0.452c0.395 0.042 0.762 0.098 1.104 0.168zM9.84 2.521l0.014-0.455c-0.187-0.006-0.379-0.009-0.576-0.009-0.195 0-0.389-0.003-0.581-0.009l-0.015 0.455c0.197 0.006 0.396 0.010 0.596 0.010 0.193 0 0.38 0.003 0.562 0.009zM1.386 30.875c-0.046-0.025-0.080-0.045-0.103-0.059-0.005-0.003-0.009-0.006-0.013-0.008s-0.008-0.005-0.011-0.007l-0.005-0.003-0-0c0 0 0 0-0.127 0.189s-0.127 0.189-0.127 0.189l0 0 0 0 0.001 0.001 0.003 0.002 0.003 0.002c0.002 0.001 0.004 0.002 0.006 0.004 0.008 0.005 0.019 0.012 0.033 0.020 0.028 0.017 0.069 0.041 0.122 0.070 0.106 0.057 0.26 0.134 0.458 0.215l0.171-0.422c-0.181-0.073-0.319-0.142-0.411-0.192zM7.495 2.428l0.042-0.453c-0.394-0.037-0.78-0.084-1.155-0.141l-0.067 0.45c0.384 0.057 0.778 0.106 1.181 0.144zM5.145 2.078l0.091-0.446c-0.395-0.080-0.775-0.168-1.136-0.26l-0.112 0.441c0.368 0.094 0.755 0.183 1.158 0.265zM2.845 1.494l0.133-0.435c-0.408-0.124-0.779-0.249-1.107-0.366l-0.153 0.428c0.334 0.12 0.712 0.247 1.127 0.373zM0.062 0.448l0.010 0.005c0.006 0.003 0.015 0.007 0.028 0.013 0.024 0.011 0.060 0.028 0.106 0.049 0.093 0.042 0.229 0.103 0.404 0.176l0.176-0.419c-0.171-0.072-0.303-0.13-0.392-0.171-0.044-0.020-0.078-0.036-0.1-0.046-0.011-0.005-0.019-0.009-0.025-0.012l-0.006-0.003-0.002-0.001c0 0 0 0-0.1 0.204s-0.1 0.204-0.1 0.204z"></path>
</symbol>
<symbol id="icon-location" viewBox="0 0 27 32">
<path fill="#f79781" style="fill: var(--color1, #f79781)" d="M26.502 12.863c0-6.628-5.756-11.965-12.903-11.965s-12.903 5.337-12.903 11.965c0 6.628 12.903 19.003 12.903 19.003s12.903-12.375 12.903-19.003zM7.59 12.628c0-3.050 2.72-5.572 6.009-5.572s6.009 2.463 6.009 5.572c0 3.050-2.657 5.572-6.009 5.572-3.289 0-6.009-2.522-6.009-5.572z"></path>
</symbol>
<symbol id="icon-Arrow-9" viewBox="0 0 10 32">
<path fill="#f79781" style="fill: var(--color1, #f79781)" d="M3.727 31.553c0.149 0.305 0.517 0.432 0.823 0.283l4.978-2.427c0.305-0.149 0.432-0.517 0.283-0.823s-0.517-0.432-0.823-0.283l-4.425 2.158-2.158-4.425c-0.149-0.305-0.517-0.432-0.823-0.283s-0.432 0.517-0.283 0.823l2.428 4.978zM0.45 1.207c4.16 7.515 7.585 17.283 3.247 29.876l1.164 0.401c4.493-13.046 0.919-23.189-3.334-30.873l-1.077 0.596z"></path>
</symbol>
<symbol id="icon-Arrow-8" viewBox="0 0 13 32">
<path fill="#f79781" style="fill: var(--color1, #f79781)" d="M6.15 31.104c-0.181 0.288-0.561 0.374-0.849 0.193l-4.686-2.952c-0.288-0.181-0.374-0.561-0.193-0.849s0.561-0.374 0.849-0.193l4.165 2.624 2.624-4.165c0.181-0.288 0.561-0.374 0.849-0.193s0.374 0.561 0.193 0.849l-2.952 4.686zM12.693 1.291c-4.949 7.021-9.411 16.36-6.463 29.348l-1.2 0.272c-3.054-13.456 1.598-23.152 6.657-30.33l1.006 0.709z"></path>
</symbol>
<symbol id="icon-Arrow-4" viewBox="0 0 21 32">
<path fill="#f79781" style="fill: var(--color1, #f79781)" d="M13.397 31.435c0.067 0.362 0.414 0.602 0.776 0.535l5.901-1.086c0.362-0.067 0.602-0.414 0.535-0.776s-0.414-0.602-0.776-0.535l-5.245 0.965-0.965-5.245c-0.067-0.362-0.414-0.602-0.776-0.535s-0.602 0.414-0.535 0.776l1.086 5.901zM0.236 1.437c15.668 4.98 19.498 20.458 13.267 29.498l1.098 0.757c6.796-9.861 2.463-26.305-13.961-31.526l-0.404 1.271z"></path>
</symbol>
<symbol id="icon-agree" viewBox="0 0 32 32">
<path fill="#536779" style="fill: var(--color2, #536779)" d="M12.102 32c-0.995 0-1.936-0.465-2.54-1.264l-8.168-10.787c-1.062-1.403-0.786-3.401 0.617-4.464 1.405-1.063 3.402-0.785 4.464 0.617l5.372 7.094 13.512-21.695c0.93-1.493 2.895-1.949 4.39-1.020 1.494 0.93 1.95 2.896 1.019 4.389l-15.962 25.627c-0.554 0.891-1.512 1.451-2.56 1.499-0.049 0.002-0.097 0.003-0.145 0.003z"></path>
</symbol>
<symbol id="icon-arrow-right" viewBox="0 0 32 32">
<path d="M19.414 27.414l10-10c0.781-0.781 0.781-2.047 0-2.828l-10-10c-0.781-0.781-2.047-0.781-2.828 0s-0.781 2.047 0 2.828l6.586 6.586h-19.172c-1.105 0-2 0.895-2 2s0.895 2 2 2h19.172l-6.586 6.586c-0.39 0.39-0.586 0.902-0.586 1.414s0.195 1.024 0.586 1.414c0.781 0.781 2.047 0.781 2.828 0z"></path>
</symbol>
<symbol id="icon-arrow-left" viewBox="0 0 32 32">
<path d="M12.586 27.414l-10-10c-0.781-0.781-0.781-2.047 0-2.828l10-10c0.781-0.781 2.047-0.781 2.828 0s0.781 2.047 0 2.828l-6.586 6.586h19.172c1.105 0 2 0.895 2 2s-0.895 2-2 2h-19.172l6.586 6.586c0.39 0.39 0.586 0.902 0.586 1.414s-0.195 1.024-0.586 1.414c-0.781 0.781-2.047 0.781-2.828 0z"></path>
</symbol>
</defs>
</svg>
