<svg aria-hidden="true" style="position: absolute; width: 0; height: 0; overflow: hidden;" version="1.1" xmlns="http://www.w3.org/2000/svg" xmlns:xlink="http://www.w3.org/1999/xlink">
<defs>
<symbol id="icon-search" viewBox="0 0 31 32">
<path fill="#f79781" style="fill: var(--color1, #f79781)" d="M26.469 24.586l-4.902-5.077c1.013-1.581 1.606-3.474 1.606-5.509 0-5.514-4.331-10-9.655-10s-9.655 4.486-9.655 10c0 5.514 4.331 10 9.655 10 1.965 0 3.793-0.614 5.319-1.663l4.902 5.077c0.753 0.781 1.977 0.781 2.73 0s0.754-2.047 0-2.828zM6.759 14c0-3.86 3.032-7 6.759-7s6.759 3.14 6.759 7c0 3.86-3.032 7-6.759 7s-6.759-3.14-6.759-7z"></path>
<path fill="#f79781" style="fill: var(--color1, #f79781)" d="M18.345 14c0 0.552-0.433 1-0.966 1h-2.897v3c0 0.552-0.433 1-0.966 1s-0.966-0.448-0.966-1v-3h-2.897c-0.533 0-0.966-0.448-0.966-1s0.433-1 0.966-1h2.897v-3c0-0.552 0.433-1 0.966-1s0.966 0.448 0.966 1v3h2.897c0.533 0 0.966 0.448 0.966 1z"></path>
</symbol>
<symbol id="icon-Line-mix" viewBox="0 0 11 32">
<path fill="none" stroke="#f79781" stroke-width="0.3137" stroke-miterlimit="4" stroke-linecap="butt" stroke-linejoin="miter" style="stroke: var(--color1, #f79781)" d="M0.184 2.857c0 0 3.071-4.177 4.822-2.282 1.845 1.996 0.556 9.334 1.781 10.249 0 0 1.912 1.428 3.136 2.343s1.417-5.27 0.391-7.366c-0.791-1.615-1.773-1.6-2.792-0.854-2.105 1.54 0.885 7.191 0.755 11.794-0.084 2.962-0.030 4.812-0.66 7.442-1.317 5.49-6.707 7.54-6.707 7.54"></path>
</symbol>
<symbol id="icon-location" viewBox="0 0 27 32">
<path fill="#f79781" style="fill: var(--color1, #f79781)" d="M26.502 12.863c0-6.628-5.756-11.965-12.903-11.965s-12.903 5.337-12.903 11.965c0 6.628 12.903 19.003 12.903 19.003s12.903-12.375 12.903-19.003zM7.59 12.628c0-3.050 2.72-5.572 6.009-5.572s6.009 2.463 6.009 5.572c0 3.050-2.657 5.572-6.009 5.572-3.289 0-6.009-2.522-6.009-5.572z"></path>
</symbol>
<symbol id="icon-Arrow-down-right" viewBox="0 0 10 32">
<path fill="#f79781" style="fill: var(--color1, #f79781)" d="M3.727 31.553c0.149 0.305 0.517 0.432 0.823 0.283l4.978-2.427c0.305-0.149 0.432-0.517 0.283-0.823s-0.517-0.432-0.823-0.283l-4.425 2.158-2.158-4.425c-0.149-0.305-0.517-0.432-0.823-0.283s-0.432 0.517-0.283 0.823l2.428 4.978zM0.45 1.207c4.16 7.515 7.585 17.283 3.247 29.876l1.164 0.401c4.493-13.046 0.919-23.189-3.334-30.873l-1.077 0.596z"></path>
</symbol>
<symbol id="icon-Arrow-down-left" viewBox="0 0 13 32">
<path fill="#f79781" style="fill: var(--color1, #f79781)" d="M6.15 31.104c-0.181 0.288-0.561 0.374-0.849 0.193l-4.686-2.952c-0.288-0.181-0.374-0.561-0.193-0.849s0.561-0.374 0.849-0.193l4.165 2.624 2.624-4.165c0.181-0.288 0.561-0.374 0.849-0.193s0.374 0.561 0.193 0.849l-2.952 4.686zM12.693 1.291c-4.949 7.021-9.411 16.36-6.463 29.348l-1.2 0.272c-3.054-13.456 1.598-23.152 6.657-30.33l1.006 0.709z"></path>
</symbol>
<symbol id="icon-Arrow-offer" viewBox="0 0 21 32">
<path fill="#f79781" style="fill: var(--color1, #f79781)" d="M13.397 31.435c0.067 0.362 0.414 0.602 0.776 0.535l5.901-1.086c0.362-0.067 0.602-0.414 0.535-0.776s-0.414-0.602-0.776-0.535l-5.245 0.965-0.965-5.245c-0.067-0.362-0.414-0.602-0.776-0.535s-0.602 0.414-0.535 0.776l1.086 5.901zM0.236 1.437c15.668 4.98 19.498 20.458 13.267 29.498l1.098 0.757c6.796-9.861 2.463-26.305-13.961-31.526l-0.404 1.271z"></path>
</symbol>
<symbol id="icon-agree" viewBox="0 0 32 32">
<path fill="#536779" style="fill: var(--color2, #536779)" d="M12.102 32c-0.995 0-1.936-0.465-2.54-1.264l-8.168-10.787c-1.062-1.403-0.786-3.401 0.617-4.464 1.405-1.063 3.402-0.785 4.464 0.617l5.372 7.094 13.512-21.695c0.93-1.493 2.895-1.949 4.39-1.020 1.494 0.93 1.95 2.896 1.019 4.389l-15.962 25.627c-0.554 0.891-1.512 1.451-2.56 1.499-0.049 0.002-0.097 0.003-0.145 0.003z"></path>
</symbol>
<symbol id="icon-arrow-right" viewBox="0 0 32 32">
<path d="M19.414 27.414l10-10c0.781-0.781 0.781-2.047 0-2.828l-10-10c-0.781-0.781-2.047-0.781-2.828 0s-0.781 2.047 0 2.828l6.586 6.586h-19.172c-1.105 0-2 0.895-2 2s0.895 2 2 2h19.172l-6.586 6.586c-0.39 0.39-0.586 0.902-0.586 1.414s0.195 1.024 0.586 1.414c0.781 0.781 2.047 0.781 2.828 0z"></path>
</symbol>
<symbol id="icon-arrow-left" viewBox="0 0 32 32">
<path d="M12.586 27.414l-10-10c-0.781-0.781-0.781-2.047 0-2.828l10-10c0.781-0.781 2.047-0.781 2.828 0s0.781 2.047 0 2.828l-6.586 6.586h19.172c1.105 0 2 0.895 2 2s-0.895 2-2 2h-19.172l6.586 6.586c0.39 0.39 0.586 0.902 0.586 1.414s-0.195 1.024-0.586 1.414c-0.781 0.781-2.047 0.781-2.828 0z"></path>
</symbol>
</defs>
</svg>
