<svg aria-hidden="true" style="position: absolute; width: 0; height: 0; overflow: hidden;" version="1.1" xmlns="http://www.w3.org/2000/svg" xmlns:xlink="http://www.w3.org/1999/xlink">
<defs>
<symbol id="icon-phone" viewBox="0 0 35 32">
<path fill="#fff" style="fill: var(--color1, #fff)" d="M24.47 18.918c-1.965 2.035-1.965 4.070-3.926 4.070s-3.926-2.035-5.888-4.070c-1.962-2.032-3.926-4.064-3.926-6.102 0-2.032 1.965-2.032 3.926-4.064 1.962-2.042-3.926-8.144-5.888-8.144s-5.888 6.106-5.888 6.106c0 4.070 4.032 12.32 7.85 16.275s11.776 8.138 15.702 8.138c0 0 5.888-4.070 5.888-6.102 0-2.035-5.888-8.138-7.85-6.106z"></path>
</symbol>
<symbol id="icon-Logo-mob" viewBox="0 0 94 32">
<path fill="#264158" style="fill: var(--color2, #264158)" d="M35.811 0.046c0 0.035 0.21 0.31 0.466 0.612 1.746 2.057 2.25 3.495 2.065 5.892-0.245 3.177 0.138 5.079 1.231 6.101 0.928 0.868 1.339 1.485 1.407 2.111l0.054 0.495-0.292-0.692c-1.074-2.545-4.878-4.228-11.537-5.104-3.072-0.404-8.612-0.799-7.98-0.569 1.166 0.424 4.168 2.167 7.186 4.17 1.112 0.739 2.070 1.363 2.129 1.387s0.408 0.252 0.776 0.508c2.889 2.011 5.056 2.873 5.641 2.245 0.722-0.777-0.151-2.052-2.467-3.604-1.239-0.83-1.231-0.909 0.025-0.26 6.203 3.204 2.588 9.933-7.67 14.275-1.006 0.427-0.818 0.444 0.467 0.045 2.506-0.779 4.793-1.858 6.792-3.205 1.564-1.054 1.504-1.11 1.082 0.999-0.45 2.253-0.988 6.508-0.777 6.145 0.051-0.088 0.175-0.591 0.275-1.117 0.44-2.307 1.44-5.901 1.896-6.813 0.389-0.779 0.443-0.808 1.35-0.736 2.116 0.169 4.484-1.026 5.068-2.556 0.246-0.646 0.139-0.736-0.155-0.13-0.81 1.673-2.999 2.645-4.968 2.204-0.652-0.146-0.632-0.183-0.399-0.637 1.929-3.754 5.953-5.928 7.781-4.204 0.662 0.625 1.402 0.808 0.951 0.217-0.153-0.2-0.31-0.572-0.349-0.828-0.161-1.048-0.713-1.536-2.076-1.836l-0.278-0.061 0.050-1.058c0.19-4.027-1.112-7.945-3.541-10.655-1.256-1.401-4.202-3.744-4.202-3.343zM34.639 4.505c-2.297 0.458-4.25 1.519-5.961 3.238l-0.905 0.909 0.362 0.038c0.322 0.034 0.438-0.037 1.064-0.648 2.099-2.048 4.838-3.162 7.775-3.162 0.847 0 0.919-0.034 0.793-0.364-0.082-0.214-2.073-0.221-3.129-0.010zM42.617 6.251c0.116 0.227 0.416 0.564 0.667 0.747 3.132 2.287 5.079 6.953 4.351 10.426-1.171 5.584-5.391 9.277-10.6 9.277-0.862 0-0.882 0.006-0.933 0.274-0.157 0.825 3.721 0.231 5.989-0.917 7.704-3.9 8.36-15.141 1.155-19.797-0.815-0.527-0.892-0.528-0.628-0.010zM25.877 12.304c-0.495 0.853-0.674 4.694-0.281 6.041 0.768 2.638 1.619 4.119 3.287 5.728 1.151 1.11 1.268 1.179 1.588 0.938l0.241-0.182-0.485-0.348c-3.417-2.454-5.267-8.049-3.874-11.713 0.125-0.33-0.308-0.753-0.476-0.464zM32.469 26.131c-0.381 0.207-0.308 0.264 0.819 0.624 1.031 0.33 1.033 0.329 1.032-0.027 0-0.264-0.059-0.31-0.616-0.473-0.453-0.126-0.71-0.207-0.966-0.291l0.194 0.055c-0.085-0.030-0.294 0.020-0.462 0.112z"></path>
<path fill="#264158" style="fill: var(--color2, #264158)" d="M43.431 17.183c-1.331 0.107-1.822 1.573-0.649 1.96 0.536 0.177 1.351-0.087 2.003-0.65l0.512-0.442-0.285-0.298c-0.48-0.481-1.255-0.58-1.582-0.569zM3.561 20.537c-0.689 0-1.302-0.151-1.838-0.455-0.532-0.303-0.953-0.733-1.263-1.29-0.306-0.56-0.46-1.222-0.46-1.986 0-0.768 0.157-1.428 0.472-1.982 0.31-0.545 0.752-0.982 1.285-1.276l0.017-0.009c0.553-0.303 1.18-0.455 1.882-0.455 0.553 0 1.018 0.078 1.397 0.232 0.383 0.155 0.692 0.355 0.925 0.598s0.402 0.506 0.504 0.786c0.097 0.235 0.155 0.508 0.159 0.794l0 0.002v0.060h-0.478v-0.059c0-0.231-0.047-0.464-0.14-0.701-0.101-0.261-0.249-0.483-0.434-0.667l-0-0c-0.196-0.208-0.453-0.374-0.772-0.499s-0.706-0.188-1.161-0.188c-0.608 0-1.151 0.136-1.627 0.405-0.472 0.27-0.847 0.657-1.123 1.161-0.272 0.504-0.408 1.104-0.408 1.799 0 0.524 0.074 0.995 0.223 1.414 0.153 0.415 0.366 0.771 0.638 1.067 0.267 0.284 0.59 0.512 0.952 0.666l0.018 0.007c0.374 0.155 0.787 0.232 1.238 0.232 0.561 0 1.023-0.068 1.385-0.203 0.362-0.138 0.638-0.303 0.829-0.494 0.196-0.194 0.324-0.377 0.383-0.549v-1.468h-2.597v-0.331h3.056l-0.2 3.301-0.228-0.919c-0.034 0.079-0.113 0.176-0.236 0.292-0.123 0.112-0.294 0.224-0.51 0.336-0.217 0.109-0.483 0.199-0.797 0.272-0.311 0.073-0.675 0.109-1.092 0.109zM11.98 20.537c-0.523 0-1.004-0.084-1.442-0.252-0.446-0.174-0.826-0.426-1.142-0.742l0 0c-0.318-0.328-0.571-0.721-0.739-1.157l-0.008-0.024c-0.174-0.461-0.262-0.983-0.262-1.566s0.089-1.104 0.268-1.561c0.179-0.461 0.43-0.85 0.753-1.166 0.315-0.311 0.693-0.56 1.114-0.724l0.022-0.008c0.438-0.168 0.917-0.252 1.435-0.252s0.998 0.084 1.436 0.252c0.438 0.168 0.819 0.412 1.142 0.731 0.323 0.316 0.572 0.705 0.747 1.166 0.178 0.458 0.268 0.978 0.268 1.561s-0.089 1.105-0.268 1.566c-0.172 0.46-0.426 0.854-0.747 1.181l0.001-0c-0.314 0.316-0.692 0.568-1.114 0.733l-0.022 0.008c-0.438 0.168-0.919 0.252-1.443 0.252zM11.98 20.192c0.604 0 1.138-0.136 1.602-0.406 0.468-0.273 0.832-0.663 1.091-1.171 0.264-0.51 0.396-1.117 0.396-1.818 0-0.705-0.134-1.308-0.402-1.808-0.264-0.504-0.627-0.888-1.091-1.152-0.464-0.267-0.996-0.4-1.595-0.4-0.596 0-1.128 0.133-1.595 0.4-0.464 0.264-0.83 0.647-1.098 1.152-0.264 0.5-0.396 1.103-0.396 1.808s0.132 1.311 0.396 1.818c0.268 0.507 0.634 0.898 1.097 1.171 0.468 0.27 1 0.405 1.595 0.405zM17.32 20.448v-7.288h2.903c0.783 0 1.387 0.148 1.812 0.445 0.425 0.293 0.638 0.764 0.638 1.413 0 0.395-0.098 0.731-0.294 1.008-0.178 0.263-0.407 0.479-0.673 0.637l-0.010 0.005c-0.264 0.148-0.5 0.234-0.708 0.257 0.208 0.013 0.421 0.061 0.638 0.143 0.221 0.079 0.406 0.203 0.555 0.371 0.149 0.165 0.224 0.387 0.224 0.667v1.843c0 0.128 0.015 0.239 0.045 0.331 0.029 0.089 0.055 0.145 0.076 0.168h-0.504c-0.026-0.048-0.050-0.103-0.068-0.161l-0.002-0.007c-0.025-0.092-0.039-0.197-0.039-0.306 0-0.009 0-0.018 0-0.027l-0 0.001v-1.788c0-0.369-0.155-0.637-0.466-0.806s-0.725-0.252-1.244-0.252h-2.565l0.16-0.153v3.498h-0.478zM17.798 16.93l-0.16-0.163h2.565c0.353 0 0.679-0.071 0.976-0.213 0.292-0.137 0.533-0.341 0.711-0.592l0.004-0.006c0.183-0.257 0.274-0.563 0.274-0.919 0-0.547-0.176-0.939-0.529-1.175-0.349-0.241-0.859-0.361-1.531-0.361h-2.476l0.166-0.168v3.597zM53.65 20.537c-0.63 0-1.158-0.077-1.584-0.232s-0.748-0.389-0.965-0.702c-0.217-0.316-0.326-0.71-0.326-1.181v-0.371h0.498v0.366c0 0.613 0.203 1.063 0.607 1.349 0.404 0.283 0.986 0.425 1.744 0.425 0.796 0 1.392-0.125 1.788-0.376 0.4-0.253 0.6-0.621 0.6-1.102 0-0.336-0.1-0.611-0.3-0.825-0.196-0.217-0.472-0.4-0.83-0.549-0.343-0.146-0.763-0.286-1.194-0.396l-0.064-0.014c-0.554-0.142-1.039-0.303-1.456-0.485-0.418-0.184-0.741-0.406-0.971-0.667-0.23-0.264-0.345-0.591-0.345-0.983 0-0.372 0.109-0.685 0.326-0.939 0.221-0.254 0.534-0.445 0.939-0.573 0.409-0.132 0.894-0.198 1.456-0.198 0.6 0 1.113 0.073 1.539 0.217 0.426 0.142 0.752 0.361 0.977 0.657 0.23 0.293 0.345 0.667 0.345 1.122v0.42h-0.498v-0.41c0-0.587-0.207-1.010-0.62-1.27-0.409-0.261-0.986-0.391-1.731-0.391-0.711 0-1.262 0.114-1.654 0.341s-0.588 0.569-0.588 1.023c0 0.339 0.108 0.621 0.326 0.845 0.221 0.22 0.524 0.406 0.907 0.558 0.383 0.148 0.819 0.286 1.309 0.415 0.554 0.142 1.024 0.3 1.412 0.474 0.392 0.175 0.69 0.389 0.894 0.642 0.209 0.254 0.313 0.577 0.313 0.969 0 0.386-0.111 0.715-0.332 0.988-0.217 0.273-0.539 0.484-0.965 0.632-0.422 0.145-0.941 0.217-1.558 0.217zM63.985 13.16v7.288h-0.492v-3.642l0.224 0.183h-5.193l0.224-0.183v3.642h-0.492v-7.288h0.492v3.682l-0.224-0.193h5.193l-0.224 0.193v-3.682h0.492zM66.346 13.501l0.224-0.208v3.474l-0.153-0.144h3.966v0.336h-3.966l0.153-0.143v3.498l-0.224-0.207h4.49v0.34h-4.758v-7.287h4.758v0.341h-4.49zM73.405 20.448h-0.479v-7.288h0.798l4.81 7.061-0.051 0.025v-7.086h0.479v7.288h-0.817l-4.79-7.056 0.051-0.015v7.070zM82.63 16.653v-0.302l3.768 4.096h-0.568l-3.513-3.785 0.262 0.025-1.105 1.087 0.077-0.267v2.94h-0.492v-7.288h0.492v4.155l-0.102-0.064 4.107-4.091h0.556l-3.481 3.494zM90.373 20.537c-0.524 0-1.005-0.084-1.444-0.252-0.446-0.174-0.827-0.426-1.143-0.742l0 0c-0.318-0.329-0.571-0.721-0.739-1.157l-0.008-0.024c-0.175-0.461-0.262-0.983-0.262-1.566s0.089-1.104 0.268-1.561c0.179-0.461 0.43-0.85 0.753-1.166 0.316-0.311 0.694-0.56 1.115-0.724l0.022-0.008c0.438-0.168 0.917-0.252 1.437-0.252s0.999 0.084 1.437 0.252c0.446 0.171 0.826 0.419 1.144 0.732l-0-0c0.324 0.316 0.572 0.705 0.747 1.166 0.179 0.458 0.268 0.978 0.268 1.561s-0.089 1.105-0.268 1.566c-0.172 0.46-0.426 0.854-0.748 1.181l0.001-0c-0.314 0.316-0.693 0.568-1.115 0.733l-0.022 0.008c-0.439 0.168-0.92 0.252-1.444 0.252zM90.373 20.192c0.604 0 1.139-0.136 1.603-0.406 0.468-0.273 0.832-0.663 1.092-1.171 0.264-0.51 0.396-1.117 0.396-1.818 0-0.705-0.134-1.308-0.403-1.808-0.264-0.504-0.628-0.888-1.092-1.152-0.464-0.267-0.996-0.4-1.596-0.4-0.596 0-1.129 0.133-1.597 0.4-0.464 0.264-0.83 0.647-1.099 1.152-0.264 0.5-0.396 1.103-0.396 1.808s0.132 1.311 0.396 1.818c0.269 0.507 0.635 0.898 1.099 1.171 0.468 0.27 1.001 0.405 1.597 0.405z"></path>
</symbol>
<symbol id="icon-close-menu" viewBox="-4 -5 40 40">
<path fill="#536779" style="fill: var(--color3, #536779)" d="M31.125 27l-11-11 10.958-11c0.077-0.073 0.125-0.177 0.125-0.292s-0.048-0.218-0.125-0.292l-0-0-3.541-3.541c-0.073-0.077-0.177-0.125-0.292-0.125s-0.218 0.048-0.292 0.125l-0 0-10.958 11-10.958-10.958c-0.073-0.077-0.177-0.125-0.292-0.125s-0.218 0.048-0.292 0.125l-0 0-3.541 3.541c-0.077 0.073-0.125 0.177-0.125 0.292s0.048 0.218 0.125 0.292l0 0 10.917 10.958-10.959 10.958c-0.077 0.073-0.125 0.177-0.125 0.292s0.048 0.218 0.125 0.292l0 0 3.541 3.541c0.168 0.168 0.459 0.168 0.584 0l11-10.958 10.958 10.958c0.168 0.168 0.459 0.168 0.625 0.043l3.543-3.541c0.077-0.073 0.125-0.177 0.125-0.292s-0.048-0.218-0.125-0.292l-0-0z"></path>
</symbol>
<symbol id="icon-wallet" viewBox="0 0 35 32">
<path fill="#536779" style="fill: var(--color3, #536779)" d="M33.894 16.43h-2.482v-5.905c0-0.027-0.002-0.054-0.003-0.080v-4.546c0-0.31-0.272-0.56-0.605-0.56h-6.417l-5.548-5.133c-0.112-0.102-0.261-0.164-0.425-0.164-0.001 0-0.002 0-0.003 0h0c-0.001 0-0.002 0-0.003 0-0.164 0-0.313 0.062-0.425 0.165l0-0-4.183 3.87-1.967-1.82c-0.113-0.102-0.263-0.164-0.428-0.164s-0.315 0.062-0.429 0.165l0.001-0.001-3.334 3.085c-0.020-0.002-0.043-0.003-0.067-0.003h-6.875c-0.335 0-0.605 0.251-0.605 0.56v5.958c0 0.018 0.001 0.036 0.003 0.055v18.529c0 0.838 0.737 1.52 1.642 1.52h28.030c0.905 0 1.642-0.681 1.642-1.52v-5.905h2.482c0.334 0 0.605-0.251 0.605-0.56v-6.985c0-0.309-0.272-0.56-0.605-0.56zM30.198 6.457v2.602c-0.128-0.034-0.276-0.054-0.428-0.055h-1.419l-2.755-2.548h4.601zM18.41 1.392l8.229 7.612h-1.837l-7.311-6.762 0.919-0.849zM16.635 3.034l6.455 5.97h-3.962l-4.474-4.138 1.981-1.832zM11.404 3.442l6.013 5.563h-1.65l-5.187-4.8 0.825-0.763zM14.055 9.004h-8.663l4.331-4.007 4.332 4.007zM3.679 9.004h-1.939c-0.151 0-0.297 0.021-0.435 0.056v-2.603h5.129l-2.755 2.548zM30.202 30.438c0 0.221-0.194 0.4-0.432 0.4h-28.029c-0.239 0-0.432-0.179-0.432-0.4v-19.913c0-0.221 0.194-0.4 0.432-0.4h28.030c0.223 0 0.406 0.158 0.427 0.36v1.371c0 0.022 0.002 0.043 0.004 0.065v4.509h-5.501c-2.416 0-4.381 1.818-4.381 4.052s1.966 4.053 4.381 4.053h5.501v5.904zM33.289 23.414h-8.588c-1.749 0-3.171-1.315-3.171-2.933s1.422-2.932 3.171-2.932h8.588v5.864z"></path>
<path fill="#536779" style="fill: var(--color3, #536779)" d="M24.73 18.563c-1.144 0-2.076 0.861-2.076 1.92 0 1.058 0.931 1.918 2.076 1.918s2.076-0.861 2.076-1.919c0-1.059-0.931-1.92-2.076-1.92zM24.73 21.282c-0.477 0-0.865-0.359-0.865-0.8s0.388-0.8 0.865-0.8c0.477 0 0.865 0.359 0.865 0.8s-0.388 0.8-0.865 0.8z"></path>
</symbol>
<symbol id="icon-location" viewBox="0 0 25 32">
<path fill="#d3dde6" style="fill: var(--color4, #d3dde6)" d="M25.379 12.162c0-6.612-5.661-11.937-12.69-11.937s-12.69 5.325-12.69 11.937c0 6.613 12.69 18.959 12.69 18.959s12.69-12.348 12.69-18.959zM6.781 11.928c0-3.042 2.675-5.559 5.909-5.559s5.909 2.458 5.909 5.559c0 3.043-2.612 5.559-5.909 5.559-3.234 0-5.909-2.516-5.909-5.559z"></path>
</symbol>
<symbol id="icon-burger-menu" viewBox="0 0 52 32">
<path fill="none" stroke="#264158" style="stroke: var(--color2, #264158)" stroke-linejoin="miter" stroke-linecap="butt" stroke-miterlimit="4" stroke-width="3.5556" d="M0 1.778h51.556M0 16h51.556M0 30.222h51.556"></path>
</symbol>
<symbol id="icon-modal-close" viewBox="0 0 32 32">
<path fill="#fff" style="fill: var(--color1, #fff)" d="M31.125 27l-11-11 10.958-11c0.077-0.073 0.125-0.177 0.125-0.292s-0.048-0.218-0.125-0.292l-0-0-3.541-3.541c-0.073-0.077-0.177-0.125-0.292-0.125s-0.218 0.048-0.292 0.125l-0 0-10.958 11-10.958-10.958c-0.073-0.077-0.177-0.125-0.292-0.125s-0.218 0.048-0.292 0.125l-0 0-3.541 3.541c-0.077 0.073-0.125 0.177-0.125 0.292s0.048 0.218 0.125 0.292l0 0 10.917 10.958-10.959 10.958c-0.077 0.073-0.125 0.177-0.125 0.292s0.048 0.218 0.125 0.292l0 0 3.541 3.541c0.168 0.168 0.459 0.168 0.584 0l11-10.958 10.958 10.958c0.168 0.168 0.459 0.168 0.625 0.043l3.543-3.541c0.077-0.073 0.125-0.177 0.125-0.292s-0.048-0.218-0.125-0.292l-0-0z"></path>
</symbol>
<symbol id="icon-message" viewBox="0 0 32 32">
<path fill="#fff" style="fill: var(--color1, #fff)" d="M28.202 3.848h-24.404c-2.094 0-3.798 1.636-3.798 3.647v17.010c0 2.011 1.704 3.647 3.798 3.647h24.404c2.094 0 3.798-1.636 3.798-3.647v-17.010c0-2.011-1.704-3.647-3.798-3.647zM28.202 24.932h-24.404c-0.308 0-0.578-0.2-0.578-0.427v-14.761l11.037 9.318c0.226 0.191 0.514 0.296 0.81 0.296l1.864 0c0.296 0 0.584-0.105 0.81-0.296l11.038-9.319v14.761c-0 0.228-0.27 0.427-0.578 0.427zM16 16.162l-10.735-9.094h21.47l-10.735 9.094z"></path>
</symbol>
</defs>
</svg>
