<svg width="90" height="57" viewBox="0 0 90 57" fill="none" xmlns="http://www.w3.org/2000/svg">
<path d="M76.9181 56.039C77.4919 56.6365 78.4415 56.6557 79.039 56.0819L88.776 46.731C89.3736 46.1572 89.3928 45.2076 88.819 44.6101C88.2451 44.0126 87.2956 43.9934 86.6981 44.5672L78.0429 52.8791L69.731 44.224C69.1572 43.6264 68.2076 43.6072 67.6101 44.1811C67.0126 44.7549 66.9934 45.7044 67.5672 46.3019L76.9181 56.039ZM1.111 5.7303C44.7085 -4.09482 77.0866 25.9886 76.5003 54.9697L79.4997 55.0304C80.1319 23.7793 45.6217 -7.37586 0.451464 2.8037L1.111 5.7303Z" fill="#F79781"/>
</svg>
