<svg aria-hidden="true" style="position: absolute; width: 0; height: 0; overflow: hidden;" version="1.1" xmlns="http://www.w3.org/2000/svg" xmlns:xlink="http://www.w3.org/1999/xlink">
<defs>
<symbol id="Arrow-4" viewBox="0 0 51 32">
<path d="M43.182 31.46c0.154 0.16 0.369 0.259 0.607 0.259 0.227 0 0.432-0.089 0.584-0.235l-0 0 5.466-5.25c0.16-0.154 0.259-0.369 0.259-0.607 0-0.465-0.377-0.842-0.842-0.842-0.227 0-0.432 0.089-0.584 0.235l0-0-4.859 4.666-4.666-4.859c-0.154-0.16-0.369-0.259-0.607-0.259-0.465 0-0.842 0.377-0.842 0.842 0 0.227 0.089 0.432 0.235 0.584l-0-0 5.25 5.466zM0.624 3.217c24.476-5.516 42.653 11.373 42.324 27.643l1.684 0.034c0.355-17.544-19.019-35.035-44.379-29.32l0.371 1.643z"></path>
</symbol>
</defs>
</svg>
