<svg viewBox="0 0 50 51" fill="none" xmlns="http://www.w3.org/2000/svg">
<path d="M47.8975 16.6501C47.633 16.123 46.9297 15.8798 46.32 16.1108C45.7138 16.3407 45.4352 16.9546 45.6997 17.4822C49.4316 24.9327 47.5721 33.4594 40.9614 39.2062C36.6972 42.9136 31.0274 44.9556 24.9973 44.9556C19.7329 44.9556 14.7433 43.3989 10.7235 40.5368L19.1801 38.9621C19.8272 38.8415 20.2403 38.2875 20.1011 37.725C19.9619 37.1623 19.3205 36.8027 18.6793 36.9242L7.93436 38.925C7.28719 39.0455 6.8741 39.5996 7.01332 40.1621L9.31403 49.5045C9.58871 50.4454 10.612 50.3237 10.736 50.3052C11.3378 50.2155 11.7961 49.6306 11.6569 49.0681L10.1039 42.7599C14.3859 45.5373 19.5588 47.0393 24.9974 47.0393C31.6677 47.0393 37.9389 44.7807 42.6562 40.6796C49.9688 34.3232 52.026 24.8915 47.8975 16.6501Z" fill="#D3DDE6"/>
<path d="M9.03787 11.4432C17.2966 4.26272 30.4142 3.8203 39.2752 10.1131L30.8192 11.6874C30.1721 11.808 29.7591 12.362 29.8983 12.9246C30.0189 13.4134 30.515 13.748 31.0684 13.748C31.1337 13.8291 42.0662 11.7245 42.0662 11.7245C42.9917 11.5425 43.054 10.7575 42.9872 10.4873L40.6853 1.14541C40.5472 0.583279 39.9071 0.220571 39.2635 0.344671C38.6164 0.4652 38.2032 1.01926 38.3424 1.5818L39.8975 7.8947C30.1251 1.57394 16.2048 2.26496 7.34324 9.97012C0.0316847 16.3261 -2.02567 25.7582 2.10183 33.9996C2.29834 34.3918 2.84127 34.8147 3.67931 34.5389C4.25709 34.3487 4.56406 33.6949 4.29959 33.1674C0.567681 25.717 2.42724 17.1899 9.03787 11.4432Z" fill="#D3DDE6"/>
<path d="M13.7389 25.6112L9.93555 28.9331V30.492H18.5091V28.7301H12.824L15.7644 26.1256C16.6627 25.3262 17.2782 24.6713 17.6131 24.1619C17.9479 23.6524 18.1153 23.1164 18.1153 22.5558C18.1153 21.5575 17.7191 20.7702 16.9317 20.1932C16.1418 19.6162 15.2245 19.3281 14.1775 19.3281C13.1305 19.3281 12.277 19.5096 11.612 19.8734C10.9493 20.2373 10.341 20.7785 9.79163 21.4949L11.4965 22.3527C12.1779 21.4384 13.0316 20.9803 14.0619 20.9803C14.6467 20.9803 15.1301 21.1341 15.5143 21.4406C15.8963 21.747 16.0874 22.119 16.0874 22.5558C16.0874 22.9924 15.9083 23.4238 15.5499 23.8492C15.1915 24.2758 14.5878 24.8631 13.7389 25.6112Z" fill="#D3DDE6"/>
<path d="M27.5119 30.4927V27.7487H29.0186V26.08H27.5119V24.0843H25.5029V26.08H22.5082L27.0451 19.5928H24.7318L20.1221 26.1262V27.7487H25.5029V30.4927H27.5119Z" fill="#D3DDE6"/>
<path d="M39.9598 30.4928V25.4096C39.9598 24.3282 39.6297 23.502 38.9647 22.9301C38.3021 22.3581 37.432 22.0722 36.3545 22.0722C35.6848 22.0722 35.0599 22.2177 34.4798 22.5088C33.8996 22.7999 33.4682 23.2006 33.1805 23.7091V18.9375H31.1714V30.4929H33.1805V26.0022C33.1805 25.2324 33.4375 24.6482 33.9515 24.2474C34.4656 23.8475 35.0692 23.6477 35.7625 23.6477C37.2221 23.6477 37.9506 24.4113 37.9506 25.9397V30.4929H39.9598V30.4928Z" fill="#D3DDE6"/>
</svg>
