<svg viewBox="0 0 50 51" fill="none" xmlns="http://www.w3.org/2000/svg">
<path d="M22.067 0.429668C18.7523 0.802543 14.7874 2.18751 11.8883 3.97731C9.54344 5.43684 6.85752 7.82324 5.25877 9.89003C2.53022 13.4164 0.81422 17.4754 0.142742 21.9818C-0.070426 23.4307 -0.0384509 27.4365 0.196034 28.9599C1.29385 36.0445 5.21613 42.2236 11.1422 46.1761C14.2012 48.2109 17.7824 49.5852 21.4382 50.1285C23.1862 50.3842 26.81 50.3842 28.558 50.1285C32.9386 49.4787 37.2446 47.6037 40.6659 44.8657C45.5581 40.9452 48.8089 35.3094 49.8002 29.0451C50.0666 27.3512 50.0666 23.3242 49.8002 21.6303C48.9155 16.0478 46.2935 11.03 42.254 7.18403C38.3104 3.43397 33.0771 0.994306 27.748 0.419014C26.5329 0.280518 23.2821 0.291172 22.067 0.429668ZM32.1605 12.3084L37.7988 17.9335L37.7668 26.0835C37.7349 33.6581 37.7242 34.2654 37.543 34.6596C37.2872 35.2349 36.669 35.8634 36.0828 36.1404C35.6138 36.3535 35.4433 36.3641 30.6257 36.3961C25.9254 36.4281 25.6483 36.4174 25.595 36.2363C25.4671 35.8315 24.9981 34.0204 24.9981 33.9458C24.9981 33.9032 27.2896 33.8499 30.0928 33.8392L35.1768 33.8073L35.2088 25.8491L35.2301 17.8909L31.9047 17.8589C28.1423 17.8269 28.185 17.8269 27.2683 16.932C26.5436 16.2396 26.4903 15.9093 26.4903 12.2658V9.14428H22.5467C18.7629 9.14428 18.6031 9.15494 18.4965 9.3467C18.4325 9.4852 18.3899 11.3496 18.3899 14.6735V19.7978H17.7291C17.356 19.7978 16.8018 19.8724 16.5034 19.947L15.9385 20.0961V14.4391C15.9385 8.03631 15.9065 8.30265 16.7911 7.45037C17.5479 6.71527 17.6012 6.71527 22.3335 6.70462L26.5329 6.69397L32.1605 12.3084ZM19.2639 20.8739C21.1824 21.2787 22.8238 22.8874 23.346 24.8796C24.0708 27.6495 22.3015 30.6219 19.509 31.357C18.731 31.5487 17.452 31.5594 16.7378 31.3676C14.425 30.7604 12.8262 28.8214 12.6663 26.4563C12.5278 24.4748 13.4551 22.7382 15.2776 21.5237C16.2795 20.8526 17.9103 20.5969 19.2639 20.8739ZM23.5699 31.9536C23.8896 33.1468 24.5718 35.7356 25.0727 37.6958C25.5736 39.6561 26.032 41.4459 26.0852 41.6696C26.2771 42.3514 26.3837 42.3941 23.8576 40.9132C23.1435 40.4871 22.4934 40.1142 22.4081 40.0929C22.3122 40.0503 22.163 40.2207 21.9605 40.5936C21.1717 42.0851 20.0419 43.8643 19.978 43.7471C19.9354 43.6725 19.6156 42.5006 19.2639 41.1582C18.9122 39.8052 18.262 37.3123 17.8143 35.6077C17.3667 33.9032 17.0043 32.4543 17.0043 32.401C17.0043 32.3371 17.3667 32.3158 17.889 32.3477C18.9335 32.401 19.7222 32.2625 20.5855 31.847C21.2783 31.5168 22.3015 30.6432 22.6639 30.0679C22.7918 29.8655 22.909 29.7163 22.941 29.7376C22.9623 29.7696 23.2501 30.7604 23.5699 31.9536ZM15.0325 31.3037C15.0751 31.3676 15.3523 31.5594 15.6507 31.7298L16.1943 32.0388L17.0683 35.3414L17.9529 38.644L17.5372 40.2101C17.3134 41.0624 17.1002 41.7868 17.0789 41.8188C17.0469 41.8401 16.8977 41.627 16.7378 41.35C16.5673 41.073 16.1836 40.4018 15.8639 39.8585L15.299 38.889L14.4676 39.3365C14.02 39.5922 13.3165 39.997 12.9115 40.242C12.24 40.6575 12.1867 40.6788 12.2507 40.4445C12.5384 39.3471 13.7002 35.0111 14.1479 33.2959C14.6701 31.3357 14.83 30.9734 15.0325 31.3037Z" fill="#D3DDE6"/>
</svg>
