<svg viewBox="0 0 50 51" fill="none" xmlns="http://www.w3.org/2000/svg">
<path d="M22.067 0.429668C18.7523 0.802544 14.7874 2.18751 11.8883 3.97731C9.54344 5.43684 6.85752 7.82324 5.25877 9.89003C2.53022 13.4164 0.81422 17.4754 0.142742 21.9818C-0.070426 23.4307 -0.0384509 27.4365 0.196034 28.9599C1.29385 36.0445 5.21613 42.2236 11.1422 46.1761C14.2012 48.2109 17.7824 49.5852 21.4382 50.1285C23.1862 50.3842 26.81 50.3842 28.558 50.1285C32.9386 49.4787 37.2446 47.6037 40.6659 44.8657C45.5581 40.9452 48.8089 35.3094 49.8002 29.0451C50.0666 27.3512 50.0666 23.3242 49.8002 21.6303C48.9155 16.0478 46.2935 11.03 42.254 7.18403C38.3104 3.43398 33.0771 0.994308 27.748 0.419014C26.5329 0.280518 23.2821 0.291172 22.067 0.429668ZM27.8012 15.4405C29.3361 16.0904 31.6489 17.0705 32.9386 17.6032C34.2283 18.1465 35.5286 18.7005 35.8164 18.839C36.1148 18.9775 37.575 19.5954 39.0672 20.224C43.8741 22.2482 44.4177 22.4932 44.2685 22.5784C44.1938 22.6317 43.0001 23.3242 41.6252 24.1339L39.1205 25.6147L39.0885 28.2994C39.0672 30.5686 39.0885 30.9841 39.2164 30.9841C39.4402 30.9841 39.9198 31.602 39.9198 31.8896C39.9198 32.1879 39.696 32.2625 38.7261 32.2625H38.0013V31.9003C38.0013 31.6446 38.0972 31.4422 38.3211 31.1972L38.6408 30.8562V28.374V25.8917L36.733 26.9677L34.8251 28.0544L34.7825 29.6524L34.7505 31.2504L34.3029 32.156C33.7699 33.2426 33.7913 33.2107 32.7787 34.031C31.2972 35.2349 30.2633 35.6504 27.6094 36.1085C25.4564 36.4707 24.5718 36.492 22.7705 36.1937C21.5874 36.0019 19.4771 35.3734 18.7843 35.0218C18.2407 34.7341 16.6739 33.4983 16.3222 33.0722C15.5761 32.156 15.4695 31.7725 15.4055 29.8229L15.3523 28.065L10.524 25.327C7.87007 23.8142 5.69576 22.5465 5.69576 22.5039C5.69576 22.4612 6.62304 22.0351 7.75283 21.5557C11.7817 19.8405 16.8977 17.6671 20.5216 16.133C22.5467 15.2807 24.3479 14.503 24.5185 14.4285C24.6997 14.3432 24.8808 14.2687 24.9235 14.2687C24.9768 14.258 26.2664 14.7907 27.8012 15.4405ZM40.2076 33.7647C40.4421 34.3932 40.4528 34.4358 40.2716 34.6383C39.9518 34.9792 39.5361 35.139 38.9073 35.139C38.2465 35.139 37.7775 34.9366 37.575 34.5637C37.4897 34.3826 37.5004 34.2441 37.6389 33.9138C37.7349 33.6794 37.8521 33.3918 37.8947 33.2746C37.9693 33.0828 38.0653 33.0615 38.9606 33.0722L39.9518 33.0935L40.2076 33.7647Z" fill="#D3DDE6"/>
</svg>
