<svg aria-hidden="true" style="position: absolute; width: 0; height: 0; overflow: hidden;" version="1.1" xmlns="http://www.w3.org/2000/svg" xmlns:xlink="http://www.w3.org/1999/xlink">
<defs>
<symbol id="icon-email" viewBox="0 0 37 32">
<path fill="none" stroke="#fff" style="stroke: var(--color1, #fff)" stroke-linejoin="round" stroke-linecap="round" stroke-miterlimit="4" stroke-width="4.9231" d="M29.47 4.678h-22.017c-1.737 0-3.145 1.448-3.145 3.235v16.176c0 1.787 1.408 3.235 3.145 3.235h22.017c1.737 0 3.145-1.448 3.145-3.235v-16.176c0-1.787-1.408-3.235-3.145-3.235z"></path>
<path fill="none" stroke="#fff" style="stroke: var(--color1, #fff)" stroke-linejoin="round" stroke-linecap="round" stroke-miterlimit="4" stroke-width="4.9231" d="M4.308 8.923l14.154 8.492 14.154-8.492"></path>
</symbol>
<symbol id="icon-instagram" viewBox="0 0 32 32">
<path d="M16 2.892c4.241 0 4.819 0 6.554 0 1.542 0 2.313 0.386 2.892 0.578 0.771 0.386 1.349 0.578 1.928 1.157s0.964 1.157 1.157 1.928c0.193 0.578 0.386 1.349 0.578 2.892 0 1.735 0 2.12 0 6.554s0 4.819 0 6.554c0 1.542-0.386 2.313-0.578 2.892-0.385 0.771-0.578 1.349-1.157 1.928s-1.157 0.964-1.928 1.157c-0.578 0.193-1.349 0.386-2.892 0.578-1.735 0-2.12 0-6.554 0s-4.819 0-6.554 0c-1.542 0-2.313-0.386-2.892-0.578-0.771-0.385-1.349-0.578-1.928-1.157s-0.964-1.157-1.157-1.928c-0.193-0.578-0.386-1.349-0.578-2.892 0-1.735 0-2.12 0-6.554s0-4.819 0-6.554c0-1.542 0.386-2.313 0.578-2.892 0.386-0.771 0.578-1.349 1.157-1.928s1.157-0.964 1.928-1.157c0.578-0.193 1.349-0.386 2.892-0.578 1.735 0 2.313 0 6.554 0zM16 0c-4.434 0-4.819 0-6.554 0s-2.892 0.386-3.855 0.771c-0.964 0.386-1.928 0.964-2.892 1.928s-1.349 1.735-1.928 2.892c-0.386 0.964-0.578 2.12-0.771 3.855 0 1.735 0 2.313 0 6.554 0 4.434 0 4.819 0 6.554s0.386 2.892 0.771 3.855c0.386 0.964 0.964 1.928 1.928 2.892s1.735 1.349 2.892 1.928c0.964 0.385 2.12 0.578 3.855 0.771 1.735 0 2.313 0 6.554 0s4.819 0 6.554 0c1.735 0 2.892-0.386 3.855-0.771s1.928-0.964 2.892-1.928c0.964-0.964 1.349-1.735 1.928-2.892 0.385-0.964 0.578-2.12 0.771-3.855 0-1.735 0-2.313 0-6.554s0-4.819 0-6.554c0-1.735-0.386-2.892-0.771-3.855s-0.964-1.928-1.928-2.892c-0.964-0.964-1.735-1.349-2.892-1.928-0.964-0.386-2.12-0.578-3.855-0.771-1.735 0-2.12 0-6.554 0z"></path>
<path d="M16 7.711c-4.627 0-8.289 3.663-8.289 8.289s3.663 8.289 8.289 8.289c4.627 0 8.289-3.663 8.289-8.289s-3.663-8.289-8.289-8.289zM16 21.398c-2.892 0-5.398-2.313-5.398-5.398 0-2.892 2.313-5.398 5.398-5.398 2.892 0 5.398 2.313 5.398 5.398 0 2.892-2.506 5.398-5.398 5.398z"></path>
<path d="M24.482 9.446c1.065 0 1.928-0.863 1.928-1.928s-0.863-1.928-1.928-1.928c-1.065 0-1.928 0.863-1.928 1.928s0.863 1.928 1.928 1.928z"></path>
</symbol>
<symbol id="icon-map" viewBox="0 0 25 32">
<path fill="#d3dde6" style="fill: var(--color2, #d3dde6)" d="M25.379 12.163c0-6.612-5.661-11.937-12.69-11.937s-12.69 5.325-12.69 11.937c0 6.612 12.69 18.959 12.69 18.959s12.69-12.347 12.69-18.959zM6.78 11.928c0-3.043 2.675-5.559 5.909-5.559s5.909 2.458 5.909 5.559c0 3.043-2.613 5.559-5.909 5.559-3.235 0-5.909-2.516-5.909-5.559z"></path>
</symbol>
<symbol id="icon-tel" viewBox="0 0 35 32">
<path fill="#fff" style="fill: var(--color1, #fff)" d="M24.469 18.92c-1.963 2.034-1.963 4.068-3.925 4.068s-3.925-2.034-5.888-4.068c-1.963-2.034-3.925-4.068-3.925-6.102s1.963-2.034 3.925-4.068c1.963-2.034-3.925-8.137-5.888-8.137s-5.888 6.103-5.888 6.103c0 4.068 4.033 12.317 7.851 16.273s11.776 8.137 15.701 8.137c0 0 5.888-4.068 5.888-6.102s-5.888-8.137-7.851-6.102z"></path>
</symbol>
<symbol id="icon-telegram" viewBox="0 0 36 32">
<path d="M35.765 1.134l-5.657 29.534c0 0-0.792 2.048-2.966 1.066l-13.053-10.364-0.061-0.030c1.763-1.64 15.435-14.369 16.033-14.946 0.925-0.894 0.351-1.426-0.723-0.751l-20.195 13.281-7.791-2.715c0 0-1.226-0.452-1.344-1.434-0.119-0.984 1.384-1.516 1.384-1.516l31.763-12.903c0 0 2.611-1.188 2.611 0.778v0z"></path>
</symbol>
<symbol id="icon-viber" viewBox="0 0 29 32">
<path d="M22.614 0.76c-5.303-1.013-10.81-1.013-16.113 0-2.346 0.506-5.303 3.342-5.813 5.57-0.918 4.355-0.918 8.811 0 13.165 0.612 2.228 3.569 5.064 5.813 5.57 0.102 0 0.204 0.101 0.204 0.202v6.38c0 0.304 0.408 0.506 0.612 0.203l3.059-3.139c0 0 2.448-2.532 2.855-2.937 0 0 0.102-0.101 0.204-0.101 3.059 0.101 6.221-0.203 9.28-0.709 2.346-0.506 5.303-3.342 5.813-5.57 0.918-4.355 0.918-8.811 0-13.165-0.612-2.127-3.569-4.962-5.915-5.469zM22.716 19.799c-0.51 1.013-1.122 1.823-2.142 2.329-0.306 0.101-0.612 0.203-0.918 0.304-0.408-0.101-0.714-0.203-1.020-0.304-3.263-1.317-6.323-3.139-8.77-5.773-1.326-1.519-2.448-3.241-3.365-5.064-0.408-0.911-0.816-1.722-1.122-2.633-0.306-0.81 0.204-1.62 0.714-2.228s1.122-1.013 1.836-1.317c0.51-0.304 1.020-0.101 1.428 0.304 0.816 1.013 1.632 2.025 2.244 3.139 0.408 0.709 0.306 1.519-0.408 2.025-0.204 0.101-0.306 0.203-0.51 0.405-0.102 0.101-0.306 0.203-0.408 0.405-0.204 0.304-0.204 0.608-0.102 0.911 0.816 2.329 2.346 4.152 4.691 5.165 0.408 0.203 0.714 0.304 1.224 0.304 0.714-0.101 1.020-0.911 1.53-1.317s1.122-0.405 1.734-0.101c0.51 0.304 1.020 0.709 1.632 1.114 0.51 0.405 1.020 0.709 1.53 1.114 0.306 0.203 0.408 0.709 0.204 1.215zM18.433 12.203c-0.204 0-0.102 0 0 0-0.408 0-0.51-0.203-0.612-0.506 0-0.203 0-0.506-0.102-0.709-0.102-0.405-0.306-0.81-0.714-1.114-0.204-0.101-0.408-0.203-0.612-0.304-0.306-0.101-0.51-0.101-0.816-0.101-0.306-0.101-0.408-0.304-0.408-0.608 0-0.203 0.306-0.405 0.51-0.405 1.632 0.101 2.856 1.013 3.059 2.937 0 0.101 0 0.304 0 0.405 0 0.203-0.102 0.405-0.306 0.405zM17.413 7.747c-0.51-0.203-1.020-0.405-1.632-0.506-0.204 0-0.51-0.101-0.714-0.101-0.306 0-0.51-0.203-0.408-0.506 0-0.304 0.204-0.506 0.51-0.405 1.020 0.101 1.938 0.304 2.856 0.709 1.836 0.911 2.855 2.431 3.161 4.456 0 0.101 0 0.203 0 0.304 0 0.203 0 0.405 0 0.709 0 0.101 0 0.203 0 0.304-0.102 0.405-0.816 0.506-0.918 0 0-0.101-0.102-0.304-0.102-0.405 0-0.911-0.204-1.823-0.612-2.633-0.612-0.911-1.326-1.519-2.142-1.924zM22.92 13.823c-0.306 0-0.51-0.304-0.51-0.608 0-0.608-0.102-1.215-0.204-1.823-0.408-3.241-3.059-5.874-6.221-6.38-0.51-0.101-1.020-0.101-1.428-0.203-0.306 0-0.714 0-0.816-0.405-0.102-0.304 0.204-0.608 0.51-0.608 0.102 0 0.204 0 0.204 0 4.181 0.101 0.204 0 0 0 4.283 0.101 7.852 2.937 8.566 7.19 0.102 0.709 0.204 1.418 0.204 2.228 0.204 0.304 0 0.608-0.306 0.608z"></path>
</symbol>
<symbol id="icon-wallet" viewBox="0 0 35 32">
<path d="M33.895 16.43h-2.482v-5.905c0-0.027-0.003-0.053-0.004-0.080v-4.547c0-0.309-0.271-0.56-0.605-0.56h-6.417l-5.548-5.132c-0.114-0.105-0.267-0.164-0.428-0.164s-0.314 0.059-0.428 0.164l-4.183 3.87-1.967-1.819c-0.236-0.219-0.62-0.219-0.856 0l-3.335 3.085c-0.022-0.002-0.044-0.004-0.067-0.004h-6.874c-0.334 0-0.605 0.251-0.605 0.56v5.958c0 0.018 0.001 0.036 0.003 0.054v18.529c0 0.838 0.737 1.52 1.643 1.52h28.030c0.906 0 1.643-0.682 1.643-1.52v-5.905h2.482c0.334 0 0.605-0.251 0.605-0.56v-6.985c0-0.309-0.271-0.56-0.605-0.56zM30.198 6.457v2.602c-0.137-0.034-0.28-0.054-0.428-0.054h-1.419l-2.755-2.548h4.602zM18.41 1.393l8.229 7.612h-1.837l-7.311-6.762 0.919-0.85zM16.635 3.034l6.455 5.971h-3.962l-4.474-4.138 1.981-1.832zM11.404 3.443l6.013 5.562h-1.65l-5.188-4.799 0.825-0.763zM14.055 9.005h-8.663l4.332-4.007 4.332 4.007zM3.679 9.005h-1.939c-0.151 0-0.296 0.021-0.435 0.056v-2.604h5.129l-2.755 2.548zM30.202 30.439c0 0.22-0.194 0.4-0.432 0.4h-28.030c-0.238 0-0.432-0.179-0.432-0.4v-19.914c0-0.22 0.194-0.4 0.432-0.4h28.030c0.223 0 0.406 0.158 0.428 0.36v1.371c0 0.022 0.002 0.044 0.004 0.065v4.509h-5.501c-2.416 0-4.381 1.818-4.381 4.052s1.965 4.052 4.381 4.052h5.501v5.905zM33.29 23.414h-8.589c-1.748 0-3.17-1.316-3.17-2.933s1.422-2.933 3.17-2.933h8.589v5.865z"></path>
<path d="M24.73 18.563c-1.144 0-2.075 0.861-2.075 1.919s0.931 1.919 2.075 1.919c1.144 0 2.075-0.861 2.075-1.919s-0.931-1.919-2.075-1.919zM24.73 21.282c-0.477 0-0.865-0.359-0.865-0.8s0.388-0.8 0.865-0.8 0.865 0.359 0.865 0.8c0 0.441-0.388 0.8-0.865 0.8z"></path>
</symbol>

</defs>
</svg>
