<svg width="16" height="19" viewBox="0 0 16 19" fill="none" xmlns="http://www.w3.org/2000/svg">
<path d="M11.7333 11.3014C10.6667 12.4681 10.6667 13.6348 9.6 13.6348C8.53333 13.6348 7.46667 12.4681 6.4 11.3014C5.33333 10.1346 4.26667 8.9679 4.26667 7.80117C4.26667 6.63444 5.33333 6.63444 6.4 5.46771C7.46667 4.30098 4.26667 0.800781 3.2 0.800781C2.13333 0.800781 0 4.30098 0 4.30098C0 6.63444 2.192 11.3655 4.26667 13.6348C6.34133 15.9041 10.6667 18.3018 12.8 18.3018C12.8 18.3018 16 15.9683 16 14.8016C16 13.6348 12.8 10.1346 11.7333 11.3014Z" fill="white"/>
</svg>
