<svg width="11" height="10" viewBox="0 0 11 10" fill="none" xmlns="http://www.w3.org/2000/svg">
<path d="M7.64657 5.9125C7.03323 6.54818 7.03323 7.18385 6.4199 7.18385C5.80657 7.18385 5.19323 6.54818 4.5799 5.9125C3.96657 5.27682 3.35323 4.64115 3.35323 4.00547C3.35323 3.36979 3.96657 3.36979 4.5799 2.73411C5.19323 2.09844 3.35323 0.191406 2.7399 0.191406C2.12657 0.191406 0.899902 2.09844 0.899902 2.09844C0.899902 3.36979 2.1603 5.94746 3.35323 7.18385C4.54617 8.42025 7.03323 9.72656 8.2599 9.72656C8.2599 9.72656 10.0999 8.45521 10.0999 7.81953C10.0999 7.18385 8.2599 5.27682 7.64657 5.9125Z" fill="white"/>
</svg>
